<svg xmlns="http://www.w3.org/2000/svg" width="100" height="30" viewBox="0 0 100 30">
    <g fill="none" fill-rule="evenodd">
        <g>
            <g>
                <g transform="translate(-1024 -745) translate(0 732) translate(1024 13)">
                    <rect width="100" height="29.683" fill="#000" rx="3"/>
                    <path fill="#A6A6A6" fill-rule="nonzero" d="M0 2.754C0 1.234 1.233 0 2.754 0h94.492C98.766 0 100 1.233 100 2.754V26.93c0 1.521-1.233 2.754-2.754 2.754H2.754C1.234 29.683 0 28.45 0 26.93V2.754zm.689 0V26.93c0 1.14.924 2.065 2.065 2.065h94.492c1.14 0 2.065-.924 2.065-2.065V2.754c0-1.14-.924-2.065-2.065-2.065H2.754C1.614.689.69 1.613.69 2.754z"/>
                    <path fill="#8F8F8F" fill-rule="nonzero" d="M0 2.754C0 1.234 1.233 0 2.754 0h94.492C98.766 0 100 1.233 100 2.754V26.93c0 1.521-1.233 2.754-2.754 2.754H2.754C1.234 29.683 0 28.45 0 26.93V2.754zm.344 0V26.93c0 1.331 1.08 2.41 2.41 2.41h94.492c1.33 0 2.41-1.079 2.41-2.41V2.754c0-1.33-1.08-2.41-2.41-2.41H2.754c-1.33 0-2.41 1.08-2.41 2.41z"/>
                    <path fill="#FFF" d="M38.384 22.796h1.68l-3.679-10.19h-1.702l-3.679 10.19h1.624l.94-2.705h3.884l.932 2.705zm-2.931-8.34h.12l1.476 4.308H33.97l1.483-4.308zm9.068.523c-1.045 0-1.95.522-2.415 1.398h-.113v-1.271H40.53v10.183h1.518v-3.658h.12c.403.812 1.271 1.292 2.366 1.292 1.942 0 3.178-1.532 3.178-3.976 0-2.443-1.236-3.968-3.192-3.968zm-.43 6.581c-1.272 0-2.07-1.002-2.07-2.606 0-1.61.798-2.612 2.076-2.612 1.285 0 2.055.981 2.055 2.605 0 1.632-.77 2.613-2.062 2.613zm8.304-6.581c-1.045 0-1.949.522-2.415 1.398h-.113v-1.271h-1.462v10.183h1.519v-3.658h.12c.402.812 1.27 1.292 2.366 1.292 1.942 0 3.177-1.532 3.177-3.976 0-2.443-1.235-3.968-3.192-3.968zm-.43 6.581c-1.272 0-2.07-1.002-2.07-2.606 0-1.61.798-2.612 2.077-2.612 1.285 0 2.055.981 2.055 2.605 0 1.632-.77 2.613-2.062 2.613zm6.836-1.504c.113 1.822 1.632 2.987 3.892 2.987 2.415 0 3.926-1.221 3.926-3.17 0-1.533-.862-2.38-2.952-2.868l-1.123-.275c-1.327-.31-1.864-.727-1.864-1.455 0-.918.833-1.518 2.083-1.518 1.187 0 2.006.586 2.154 1.525h1.54c-.092-1.716-1.604-2.923-3.673-2.923-2.224 0-3.707 1.207-3.707 3.022 0 1.497.84 2.387 2.683 2.818l1.314.318c1.349.317 1.942.783 1.942 1.56 0 .904-.932 1.561-2.203 1.561-1.363 0-2.31-.614-2.444-1.582h-1.568zm9.125-6.815v1.9h-1.264v1.278h1.264v4.343c0 1.483.67 2.077 2.359 2.077.296 0 .572-.036.812-.078v-1.264c-.212.02-.332.035-.565.035-.756 0-1.088-.353-1.088-1.158v-3.955h1.723v-1.278h-1.723v-1.9h-1.518zm7.006 8.355c-1.32 0-2.062-.968-2.062-2.649 0-1.666.741-2.64 2.062-2.64 1.313 0 2.062.974 2.062 2.64 0 1.674-.749 2.649-2.062 2.649zm0 1.348c2.245 0 3.622-1.504 3.622-3.997 0-2.478-1.384-3.99-3.622-3.99-2.246 0-3.63 1.512-3.63 3.99 0 2.493 1.377 3.997 3.63 3.997zm4.315-.148h1.518v-4.54c0-1.081.812-1.809 1.956-1.809.255 0 .72.05.84.092v-1.497c-.162-.042-.451-.063-.67-.063-1.003 0-1.85.55-2.07 1.306h-.112v-1.18h-1.462v7.691zm7.733-6.546c1.123 0 1.857.784 1.893 1.991h-3.884c.084-1.2.868-1.991 1.991-1.991zm1.886 4.47c-.283.6-.911.932-1.83.932-1.214 0-1.998-.854-2.047-2.203v-.085h5.43v-.53c0-2.415-1.292-3.877-3.432-3.877-2.168 0-3.545 1.561-3.545 4.019 0 2.457 1.349 3.968 3.552 3.968 1.759 0 2.988-.847 3.334-2.224h-1.462zM32.427 4.652v4.852h1.752c1.446 0 2.283-.891 2.283-2.441 0-1.527-.844-2.411-2.283-2.411h-1.752zm.753.686h.915c1.005 0 1.6.639 1.6 1.735 0 1.113-.585 1.745-1.6 1.745h-.915v-3.48zm5.933 3.594c-.629 0-.982-.46-.982-1.26 0-.794.353-1.258.982-1.258.625 0 .982.464.982 1.257 0 .797-.357 1.261-.982 1.261zm0 .643c1.07 0 1.725-.717 1.725-1.904 0-1.18-.66-1.9-1.725-1.9-1.07 0-1.729.72-1.729 1.9 0 1.187.656 1.904 1.729 1.904zm7.392-3.733h-.723l-.652 2.795h-.058l-.753-2.795h-.693l-.753 2.795h-.054l-.655-2.795h-.734l1.01 3.662h.742l.754-2.697h.057l.757 2.697h.75l1.005-3.662zm.919 3.662h.723V7.362c0-.572.356-.928.938-.928.538 0 .8.292.8.88v2.19h.723v-2.37c0-.872-.46-1.363-1.278-1.363-.551 0-.978.246-1.156.653h-.054v-.582h-.696v3.662zm4.406 0h.723V4.413h-.723v5.091zm3.525-.572c-.63 0-.982-.46-.982-1.26 0-.794.353-1.258.982-1.258.625 0 .981.464.981 1.257 0 .797-.356 1.261-.981 1.261zm0 .643c1.069 0 1.725-.717 1.725-1.904 0-1.18-.66-1.9-1.725-1.9-1.07 0-1.729.72-1.729 1.9 0 1.187.656 1.904 1.729 1.904zm3.962-.619c-.394 0-.68-.192-.68-.521 0-.323.229-.495.733-.528l.895-.057v.306c0 .454-.404.8-.948.8zm-.185.609c.48 0 .88-.209 1.1-.575h.056v.514h.697V7.002c0-.773-.518-1.23-1.436-1.23-.831 0-1.423.403-1.497 1.032h.7c.08-.26.36-.407.763-.407.494 0 .75.218.75.605v.316l-.992.057c-.871.054-1.362.434-1.362 1.093 0 .67.514 1.097 1.22 1.097zm4.392 0c.505 0 .932-.24 1.15-.64h.057v.58h.693V4.412h-.723v2.01h-.054c-.198-.403-.622-.642-1.123-.642-.925 0-1.52.734-1.52 1.89 0 1.16.589 1.894 1.52 1.894zm.205-3.134c.606 0 .986.48.986 1.244 0 .766-.377 1.24-.986 1.24-.612 0-.978-.467-.978-1.244 0-.77.37-1.24.978-1.24zm6.552 2.501c-.628 0-.982-.46-.982-1.26 0-.794.354-1.258.982-1.258.626 0 .982.464.982 1.257 0 .797-.356 1.261-.982 1.261zm0 .643c1.07 0 1.726-.717 1.726-1.904 0-1.18-.66-1.9-1.726-1.9-1.069 0-1.728.72-1.728 1.9 0 1.187.656 1.904 1.728 1.904zm2.765-.07h.723V7.361c0-.572.357-.928.939-.928.538 0 .8.292.8.88v2.19h.723v-2.37c0-.872-.46-1.363-1.278-1.363-.551 0-.979.246-1.157.653h-.054v-.582h-.696v3.662zm6.684-4.55v.904h-.602v.609h.602v2.068c0 .706.32.988 1.123.988.141 0 .272-.017.387-.037v-.602c-.101.01-.159.017-.27.017-.36 0-.517-.168-.517-.551V6.468h.82v-.61h-.82v-.904h-.723zm2.573 4.55h.723v-2.14c0-.554.366-.928.958-.928.545 0 .817.296.817.881v2.186h.723V7.14c0-.87-.47-1.365-1.294-1.365-.552 0-.975.245-1.154.656h-.057V4.413h-.716v5.091zm5.916-3.118c.534 0 .884.373.9.948H87.27c.04-.572.414-.948.949-.948zm.898 2.128c-.135.286-.434.444-.871.444-.579 0-.952-.407-.976-1.049v-.04h2.586v-.252c0-1.15-.615-1.847-1.634-1.847-1.032 0-1.688.744-1.688 1.914s.642 1.89 1.691 1.89c.838 0 1.423-.404 1.588-1.06h-.696z"/>
                    <g fill="#FFF">
                        <path d="M13.315 10.369c-.022-2.463 2.017-3.662 2.11-3.718-1.154-1.683-2.944-1.913-3.573-1.932-1.503-.158-2.962.9-3.727.9-.781 0-1.96-.884-3.232-.858-1.635.025-3.165.972-4.004 2.442-1.732 2.998-.44 7.404 1.219 9.828.83 1.187 1.8 2.512 3.069 2.465 1.242-.05 1.706-.792 3.204-.792 1.485 0 1.921.792 3.216.762 1.333-.02 2.172-1.192 2.973-2.39.959-1.359 1.344-2.7 1.36-2.77-.031-.009-2.589-.985-2.615-3.937M10.87 3.125c.668-.835 1.125-1.972.998-3.125-.967.043-2.176.669-2.872 1.486-.616.72-1.166 1.9-1.024 3.01 1.086.08 2.2-.548 2.898-1.37" transform="translate(8.953 4.614)"/>
                    </g>
                </g>
            </g>
        </g>
    </g>
</svg>
