<svg xmlns="http://www.w3.org/2000/svg" width="121" height="40" viewBox="0 0 121 40">
    <g fill="none" fill-rule="evenodd">
        <g fill-rule="nonzero">
            <g>
                <path fill="#A6A6A6" d="M110.869 0H9.599c-.37 0-.735 0-1.103.002-.308.002-.614.008-.925.013-.676.008-1.35.067-2.017.176-.666.113-1.311.324-1.914.627-.601.306-1.151.704-1.63 1.18-.48.473-.88 1.02-1.185 1.62-.306.6-.518 1.24-.63 1.903-.111.662-.172 1.332-.18 2.002-.01.307-.01.615-.015.921V31.56c.005.31.006.61.015.921.008.671.069 1.34.18 2.002.111.663.324 1.306.63 1.905.305.598.705 1.143 1.186 1.614.476.477 1.026.875 1.63 1.179.602.304 1.247.517 1.913.63.667.11 1.341.168 2.017.177.311.007.617.011.925.011.368.002.733.002 1.102.002H110.87c.362 0 .73 0 1.091-.002.307 0 .622-.004.928-.01.675-.01 1.348-.068 2.014-.178.668-.114 1.315-.327 1.92-.63.603-.304 1.153-.702 1.629-1.179.479-.473.88-1.018 1.189-1.614.304-.6.514-1.242.623-1.905.112-.661.175-1.33.187-2.002.004-.31.004-.61.004-.921.008-.364.008-.725.008-1.094V9.536c0-.366 0-.73-.008-1.092 0-.306 0-.614-.004-.92-.012-.672-.075-1.34-.187-2.003-.11-.662-.32-1.303-.623-1.903-.621-1.203-1.607-2.182-2.817-2.8-.606-.302-1.253-.514-1.921-.627-.666-.11-1.339-.169-2.014-.176-.306-.005-.621-.011-.928-.013C111.598 0 111.23 0 110.87 0z" transform="translate(-30 -731) translate(30 731)"/>
                <path fill="#000" d="M8.501 39.125c-.307 0-.606-.004-.91-.01-.63-.009-1.26-.063-1.882-.164-.58-.1-1.142-.284-1.668-.548-.52-.261-.995-.605-1.406-1.016-.417-.407-.764-.879-1.027-1.397-.267-.521-.45-1.08-.547-1.657-.103-.62-.16-1.247-.167-1.875-.007-.21-.015-.913-.015-.913v-23.1s.009-.692.015-.895c.007-.628.063-1.253.166-1.872.096-.579.28-1.14.547-1.662.263-.518.608-.99 1.022-1.398.414-.412.89-.757 1.412-1.023.524-.263 1.085-.446 1.664-.544C6.33.95 6.961.895 7.593.887l.909-.012h103.453l.92.013c.626.007 1.252.061 1.87.162.585.099 1.152.284 1.682.548 1.045.535 1.895 1.381 2.431 2.42.263.52.444 1.076.54 1.649.104.624.162 1.255.174 1.887.003.283.003.588.003.89.008.375.008.732.008 1.092v20.929c0 .363 0 .718-.008 1.075 0 .325 0 .623-.004.93-.012.62-.07 1.24-.172 1.853-.094.581-.277 1.145-.544 1.67-.265.513-.61.98-1.022 1.386-.411.414-.887.759-1.409 1.022-.528.266-1.094.452-1.679.55-.622.101-1.25.156-1.881.163-.295.007-.604.011-.904.011l-1.091.002-102.368-.002z" transform="translate(-30 -731) translate(30 731)"/>
                <path fill="#FFF" d="M42.584 27.14H37.82l-1.144 3.356h-2.018l4.513-12.418h2.097l4.513 12.418h-2.052l-1.144-3.356zm-4.271-1.55h3.777l-1.862-5.446h-.052l-1.863 5.447zm17.214.38c0 2.813-1.515 4.62-3.803 4.62-1.183.062-2.296-.553-2.868-1.583h-.043v4.484h-1.87V21.442h1.81v1.506h.034c.597-1.024 1.712-1.638 2.903-1.6 2.313 0 3.837 1.816 3.837 4.622zm-1.922 0c0-1.833-.954-3.038-2.409-3.038-1.43 0-2.39 1.23-2.39 3.038 0 1.824.96 3.046 2.39 3.046 1.455 0 2.409-1.197 2.409-3.046zm11.954 0c0 2.813-1.516 4.62-3.804 4.62-1.182.062-2.296-.553-2.867-1.583h-.044v4.484h-1.87V21.442h1.81v1.506h.035c.596-1.024 1.711-1.638 2.902-1.6 2.313 0 3.838 1.816 3.838 4.622zm-1.923 0c0-1.833-.954-3.038-2.409-3.038-1.43 0-2.39 1.23-2.39 3.038 0 1.824.96 3.046 2.39 3.046 1.455 0 2.409-1.197 2.409-3.046zm8.553 1.066c.138 1.232 1.342 2.04 2.988 2.04 1.577 0 2.711-.808 2.711-1.919 0-.964-.684-1.54-2.304-1.936l-1.62-.388c-2.295-.55-3.361-1.617-3.361-3.348 0-2.142 1.88-3.614 4.549-3.614 2.641 0 4.452 1.472 4.513 3.614h-1.889c-.113-1.239-1.144-1.987-2.651-1.987s-2.538.757-2.538 1.858c0 .878.658 1.395 2.27 1.79l1.377.336c2.565.603 3.63 1.626 3.63 3.443 0 2.323-1.863 3.778-4.826 3.778-2.772 0-4.644-1.42-4.765-3.667h1.916zM83.902 19.3v2.142h1.733v1.472h-1.733v4.991c0 .776.347 1.137 1.109 1.137.206-.004.41-.018.615-.043v1.463c-.342.063-.69.092-1.039.086-1.845 0-2.565-.689-2.565-2.445v-5.189h-1.325v-1.472h1.325V19.3h1.88zm2.737 6.67c0-2.849 1.689-4.639 4.322-4.639 2.643 0 4.324 1.79 4.324 4.639 0 2.856-1.672 4.638-4.324 4.638-2.65 0-4.322-1.782-4.322-4.638zm6.74 0c0-1.954-.902-3.108-2.418-3.108s-2.416 1.162-2.416 3.108c0 1.962.9 3.106 2.416 3.106s2.418-1.144 2.418-3.106zm3.448-4.528h1.785v1.541h.043c.249-.992 1.164-1.674 2.192-1.635.216-.001.43.022.641.069v1.738c-.272-.082-.556-.12-.84-.112-.55-.022-1.083.196-1.458.596-.374.4-.554.944-.492 1.487v5.37h-1.87v-9.054zm13.287 6.395c-.252 1.643-1.863 2.771-3.925 2.771-2.651 0-4.297-1.764-4.297-4.595 0-2.84 1.655-4.682 4.218-4.682 2.522 0 4.108 1.72 4.108 4.466v.637h-6.437v.112c-.06.674.174 1.341.643 1.832.469.49 1.128.757 1.808.732.908.085 1.764-.433 2.105-1.273h1.777zm-6.325-2.702h4.557c.034-.606-.188-1.198-.612-1.634-.425-.437-1.013-.677-1.624-.664-.615-.004-1.206.237-1.642.668-.436.432-.68 1.019-.679 1.63zM38.078 8.731c.795-.057 1.572.244 2.12.818.547.574.807 1.362.707 2.147 0 1.906-1.037 3.002-2.827 3.002h-2.17V8.73h2.17zm-1.236 5.123h1.132c.568.034 1.12-.188 1.505-.605.384-.416.559-.982.476-1.541.077-.556-.1-1.118-.484-1.53-.383-.414-.932-.635-1.497-.604h-1.132v4.28zm5.117-1.41c-.078-.807.311-1.588 1.005-2.015.693-.428 1.571-.428 2.265 0 .693.427 1.083 1.208 1.005 2.015.08.808-.31 1.591-1.004 2.02-.694.428-1.573.428-2.267 0-.694-.429-1.084-1.212-1.004-2.02zm3.355 0c0-.976-.442-1.547-1.216-1.547-.778 0-1.215.571-1.215 1.547 0 .984.437 1.55 1.215 1.55.774 0 1.216-.57 1.216-1.55zm6.603 2.254h-.928l-.937-3.317h-.07l-.934 3.317h-.919l-1.25-4.503h.908l.812 3.436h.067l.932-3.436h.858l.932 3.436h.071l.808-3.436h.895l-1.245 4.503zm2.296-4.503h.86v.715h.068c.232-.527.775-.849 1.352-.802.447-.033.885.137 1.19.463.305.325.445.771.38 1.212v2.915h-.895v-2.692c0-.724-.317-1.084-.978-1.084-.304-.014-.598.104-.806.324-.208.22-.309.518-.277.817v2.635h-.894v-4.503zm5.275-1.758h.894v6.26h-.894v-6.26zm2.138 4.007c-.078-.807.312-1.588 1.005-2.015.694-.428 1.572-.428 2.265 0 .694.427 1.083 1.208 1.006 2.015.079.808-.31 1.591-1.005 2.02-.694.428-1.573.428-2.267 0-.694-.429-1.083-1.212-1.004-2.02zm3.355 0c0-.976-.441-1.547-1.216-1.547-.778 0-1.215.571-1.215 1.547 0 .984.437 1.55 1.215 1.55.775 0 1.216-.57 1.216-1.55zm1.863.98c0-.81.607-1.278 1.686-1.344l1.227-.07v-.389c0-.475-.316-.744-.928-.744-.499 0-.845.182-.944.5h-.866c.091-.773.823-1.27 1.852-1.27 1.136 0 1.777.563 1.777 1.514v3.077h-.861v-.633h-.07c-.293.462-.814.732-1.362.707-.385.04-.769-.084-1.057-.34-.288-.258-.453-.623-.454-1.008zm2.913-.384v-.377l-1.107.07c-.624.042-.907.253-.907.65 0 .405.354.64.84.64.289.03.576-.059.798-.244.22-.186.357-.452.376-.74zm2.067-.596c0-1.423.736-2.324 1.881-2.324.579-.026 1.12.281 1.39.79h.067V8.437h.895v6.26H75.2v-.71h-.071c-.29.504-.839.806-1.424.785-1.153 0-1.881-.901-1.881-2.328zm.924 0c0 .955.453 1.53 1.211 1.53.754 0 1.22-.583 1.22-1.526 0-.938-.47-1.53-1.22-1.53-.753 0-1.211.58-1.211 1.526zm7.01 0c-.078-.807.312-1.588 1.006-2.015.693-.428 1.57-.428 2.264 0 .694.427 1.083 1.208 1.006 2.015.079.808-.31 1.591-1.005 2.02-.694.428-1.572.428-2.267 0-.694-.429-1.083-1.212-1.004-2.02zm3.355 0c0-.976-.441-1.547-1.216-1.547-.777 0-1.215.571-1.215 1.547 0 .984.438 1.55 1.215 1.55.775 0 1.216-.57 1.216-1.55zm2.12-2.25h.862v.716h.067c.232-.527.776-.849 1.353-.802.446-.033.884.137 1.19.463.305.325.444.771.379 1.212v2.915h-.895v-2.692c0-.724-.317-1.084-.978-1.084-.303-.014-.597.104-.805.324-.208.22-.31.518-.277.817v2.635h-.895v-4.503zm8.906-1.12v1.141h.982v.749h-.982v2.315c0 .472.195.679.64.679.115 0 .228-.008.342-.021v.74c-.161.029-.324.044-.487.046-.995 0-1.391-.348-1.391-1.216v-2.543h-.72v-.749h.72V9.074h.896zm2.204-.637h.886v2.481h.071c.244-.53.797-.853 1.382-.806.445-.024.876.15 1.178.474.302.325.443.767.383 1.205v2.907h-.895V12.01c0-.72-.337-1.084-.97-1.084-.31-.025-.617.087-.837.307-.22.22-.331.526-.304.835v2.63h-.894V8.437zm9.117 5.045c-.251.85-1.079 1.398-1.965 1.303-.604.016-1.185-.233-1.588-.68-.403-.449-.588-1.05-.505-1.645-.08-.596.103-1.198.504-1.65.401-.45.98-.707 1.586-.702 1.26 0 2.022.856 2.022 2.27v.31h-3.201v.05c-.028.334.086.664.316.91s.554.384.891.38c.438.052.864-.164 1.078-.546h.862zm-3.147-1.451h2.29c.022-.306-.086-.607-.298-.829-.213-.222-.51-.345-.818-.338-.313-.004-.614.118-.835.338-.22.22-.343.518-.34.829zM24.934 20.3c.022-1.696.917-3.263 2.372-4.151-.922-1.308-2.41-2.108-4.017-2.158-1.69-.176-3.33 1.005-4.191 1.005-.878 0-2.205-.988-3.633-.958-1.879.06-3.588 1.096-4.502 2.727-1.947 3.349-.495 8.27 1.37 10.977.933 1.325 2.023 2.805 3.45 2.753 1.397-.058 1.918-.885 3.604-.885 1.67 0 2.159.885 3.615.852 1.498-.025 2.442-1.332 3.342-2.67.67-.944 1.186-1.988 1.529-3.092-1.78-.748-2.937-2.48-2.939-4.4zm-2.75-8.09c.817-.973 1.22-2.225 1.122-3.49-1.248.13-2.4.723-3.229 1.66-.817.924-1.232 2.133-1.151 3.361 1.265.013 2.466-.55 3.258-1.53z" transform="translate(-30 -731) translate(30 731)"/>
            </g>
        </g>
    </g>
</svg>
