<svg xmlns="http://www.w3.org/2000/svg" width="205" height="101" viewBox="0 0 205 101">
    <defs>
        <linearGradient id="l4itjw6xja" x1=".003%" x2="99.998%" y1="50.003%" y2="50.003%">
            <stop offset="0%" stop-color="#FFB405"/>
            <stop offset="100%" stop-color="#FF0069"/>
        </linearGradient>
    </defs>
    <g fill="none" fill-rule="evenodd">
        <g>
            <g>
                <g>
                    <path fill="url(#l4itjw6xja)" fill-rule="nonzero" d="M45.698 81.814S27.815 73.556 22.54 56.27c-2.598-8.51 5.046-17.988 13.94-17.988 3.372 0 6.495 1.041 9.082 2.812 8.907 7.59 22.292 7.182 30.71-1.235 0 0 3.06-3.018 5.398-8.464-1.522 2.335-2.789 3.586-2.789 3.586-7.753 7.753-19.712 8.7-28.522 2.882-2.342-1.546-4.498-4.727-9.073-6.615-1.135-.47-2.32-.843-3.543-1.119-1.616-.369-3.297-.563-5.026-.563-12.519 0-22.668 10.15-22.668 22.668 0 0-.078 10.29 8.149 19.414 11.555 12.814 27.539 17.976 27.539 17.976S61.69 84.463 73.241 71.65c8.227-9.128 8.15-19.414 8.15-19.414 0-.835-.05-1.658-.14-2.47-1.045 19.53-35.553 32.049-35.553 32.049zm.008-48.13c3.678-2.579 8.188-4.117 13.02-4.117 6.879 0 13.036 3.068 17.192 7.9-1.74 1.232-3.617 2.183-5.566 2.867-4.157-4.778-10.274-7.8-17.103-7.8-2.63.004-5.193.323-7.543 1.15zm16.209-12.53c0 4.432-3.593 8.028-8.029 8.028-4.432 0-8.029-3.593-8.029-8.028 0-4.436 3.593-8.03 8.03-8.03 4.435 0 8.028 3.598 8.028 8.03zm-25.687-4.009c0 4.576-3.71 8.285-8.285 8.285s-8.285-3.71-8.285-8.285c0-4.576 3.71-8.285 8.285-8.285 4.576 0 8.285 3.71 8.285 8.285z" transform="translate(-822 -120) translate(742 120) translate(80)"/>
                    <path fill="#231F20" fill-rule="nonzero" d="M73.902 38.742c.691-.385 1.363-.808 2.02-1.27-4.005-4.662-9.874-7.668-16.45-7.882 5.543.28 10.58 3.698 14.43 9.152z" opacity=".25" transform="translate(-822 -120) translate(742 120) translate(80)"/>
                    <path fill="#4D4C4D" fill-rule="nonzero" d="M45.706 80.967L45.706 81.037 45.725 81.01z" opacity=".25" transform="translate(-822 -120) translate(742 120) translate(80)"/>
                    <path fill="#231F20" fill-rule="nonzero" d="M81.255 49.765c-.73 18.244-31.968 30.705-35.398 31.975 2.152-.672 26.883-6.51 34.512-23.103 1.041-3.776 1.022-6.402 1.022-6.402.003-.835-.047-1.658-.136-2.47zM36.48 38.287c2.487 0 4.837.567 6.934 1.573-2.458-1.379-5.236-2.618-8.176-2.618-10.076 0-18.59 8.837-15.79 19.033 4.848 17.634 26.227 25.55 26.227 25.55s-17.93-8.494-23.139-25.55c-2.594-8.51 5.05-17.988 13.945-17.988z" opacity=".25" transform="translate(-822 -120) translate(742 120) translate(80)"/>
                    <g fill="#231F20" fill-rule="nonzero">
                        <path d="M.245 20.944L.245.835 12.566.835 12.566 5.244 5.586 5.244 5.586 8.732 12.165 8.732 12.165 13.043 5.586 13.043 5.586 20.944.245 20.944zM16.951 20.944L16.951.835 22.432.835 22.432 16.248 29.245 16.248 29.245 20.948 16.951 20.948zM33.331 20.944L33.331.835 45.652.835 45.652 5.244 38.672 5.244 38.672 8.732 45.252 8.732 45.252 13.043 38.672 13.043 38.672 16.438 45.652 16.438 45.652 20.944 33.331 20.944zM97.444 20.944L97.444.835 102.979.835 102.979 20.944zM94.679 4.191L90.763.276 84.063 6.976 77.366.276 73.451 4.191 80.151 10.888 73.451 17.588 77.366 21.499 84.063 14.803 90.763 21.499 94.679 17.588 87.978 10.888zM70.686 4.191L66.77.276 60.074 6.976 53.373.276 49.462 4.191 56.158 10.888 49.462 17.588 53.373 21.499 60.074 14.803 66.77 21.499 70.686 17.588 63.985 10.888z" transform="translate(-822 -120) translate(742 120) translate(80) translate(91.28 28.355)"/>
                    </g>
                    <path fill="#4D4C4D" fill-rule="nonzero" d="M150.923 92.057L150.923 92.131 150.942 92.099z" opacity=".25" transform="translate(-822 -120) translate(742 120) translate(80)"/>
                    <path d="M0.027 0.136H204.284V100.85499999999999H0.027z" transform="translate(-822 -120) translate(742 120) translate(80)"/>
                    <g fill="#F06" fill-rule="nonzero">
                        <path d="M.357 8.813l1.31-.606c.124.451.349.793.683 1.03.33.237.754.353 1.266.353.486 0 .874-.136 1.162-.408.287-.272.43-.633.43-1.087 0-.595-.493-1.123-1.475-1.585-.136-.07-.245-.12-.319-.151-1.11-.544-1.853-1.034-2.222-1.473-.369-.439-.555-.975-.555-1.608 0-.823.28-1.487.839-1.996.56-.509 1.29-.765 2.195-.765.745 0 1.367.143 1.868.43.501.288.847.7 1.04 1.236l-1.28.66c-.203-.318-.424-.547-.665-.695-.24-.148-.517-.221-.831-.221-.443 0-.793.116-1.053.345-.26.23-.388.536-.388.925 0 .606.57 1.173 1.709 1.693.085.043.155.074.206.097.998.459 1.681.91 2.054 1.348.373.44.56.987.56 1.643 0 .956-.3 1.717-.901 2.276-.603.564-1.414.843-2.44.843-.858 0-1.561-.198-2.113-.594-.548-.392-.909-.956-1.08-1.69zM22.397 5.807c0 .715-.136 1.394-.404 2.031-.268.637-.66 1.208-1.173 1.71-.52.5-1.104.885-1.756 1.15-.653.267-1.336.4-2.055.4-.726 0-1.418-.137-2.078-.405-.66-.268-1.243-.652-1.748-1.146-.513-.5-.905-1.068-1.173-1.7-.268-.634-.4-1.314-.4-2.04 0-.723.132-1.402.4-2.04.268-.636.657-1.211 1.173-1.716.513-.501 1.1-.882 1.752-1.142.652-.26 1.344-.392 2.074-.392.726 0 1.414.132 2.063.392.648.26 1.231.645 1.748 1.142.512.509.905 1.084 1.173 1.724.268.645.404 1.321.404 2.032zm-1.71 0c0-.509-.093-.994-.28-1.453-.186-.458-.454-.87-.803-1.227-.342-.354-.734-.626-1.181-.816-.447-.19-.92-.287-1.418-.287-.497 0-.967.093-1.418.283-.446.19-.846.462-1.196.82-.35.353-.614.761-.8 1.22-.183.458-.276.947-.276 1.46 0 .509.093.99.276 1.449.183.458.45.862.8 1.22.35.357.746.633 1.193.819.446.186.92.284 1.417.284.494 0 .96-.094 1.403-.284.442-.19.842-.462 1.196-.82.35-.357.618-.765.804-1.223.19-.458.284-.94.284-1.445zM27.648 10.833L27.648.746 33.276.746 33.276 2.136 29.287 2.136 29.287 4.653 33.276 4.653 33.276 6.094 29.287 6.094 29.287 10.837 27.648 10.837zM48.77 5.807c0 .715-.135 1.394-.403 2.031-.268.637-.66 1.208-1.173 1.71-.52.5-1.103.885-1.756 1.15-.653.267-1.336.4-2.055.4-.726 0-1.418-.137-2.078-.405-.66-.268-1.243-.652-1.748-1.146-.513-.5-.905-1.068-1.173-1.7-.268-.634-.4-1.314-.4-2.04 0-.723.132-1.402.4-2.04.268-.636.657-1.211 1.173-1.716.513-.501 1.1-.882 1.752-1.142.653-.26 1.344-.392 2.074-.392.727 0 1.414.132 2.063.392.648.26 1.231.645 1.748 1.142.512.509.905 1.084 1.173 1.724.268.645.404 1.321.404 2.032zm-1.708 0c0-.509-.094-.994-.28-1.453-.187-.458-.455-.87-.804-1.227-.342-.354-.734-.626-1.181-.816-.447-.19-.92-.287-1.418-.287-.497 0-.967.093-1.417.283-.447.19-.847.462-1.197.82-.35.353-.614.761-.8 1.22-.183.458-.276.947-.276 1.46 0 .509.093.99.276 1.449.183.458.45.862.8 1.22.35.357.746.633 1.193.819.446.186.92.284 1.417.284.494 0 .96-.094 1.403-.284.442-.19.843-.462 1.196-.82.35-.357.618-.765.804-1.223.19-.458.284-.94.284-1.445zM55.556 6.32v4.513h-1.538V.746h2.288c.672 0 1.193.043 1.562.132.369.085.683.233.947.435.311.245.556.56.723.944.17.384.256.808.256 1.266 0 .808-.194 1.441-.586 1.9-.393.458-.968.73-1.729.823l3.473 4.587h-1.853L55.743 6.32h-.187zm.105-1.278h.295c.867 0 1.445-.101 1.729-.303.284-.202.427-.56.427-1.076 0-.556-.151-.948-.458-1.173-.307-.23-.874-.342-1.698-.342h-.295v2.894zM68.775 2.136L68.775 10.833 67.135 10.833 67.135 2.136 64.455 2.136 64.455.746 71.443.746 71.443 2.136zM81.492 10.833V.746h2.21c1.437 0 2.45.074 3.033.217.583.144 1.1.389 1.538.727.583.446 1.026 1.017 1.329 1.716.303.7.45 1.496.45 2.393 0 .897-.151 1.69-.45 2.381-.3.692-.742 1.263-1.329 1.713-.438.342-.943.583-1.507.727-.563.143-1.44.217-2.63.217h-2.644v-.004zm1.643-1.484h1.378c.758 0 1.329-.05 1.706-.151.38-.101.707-.272.99-.509.38-.326.668-.73.859-1.216.19-.485.287-1.048.287-1.69 0-.64-.097-1.207-.287-1.693-.19-.485-.478-.89-.859-1.216-.283-.237-.625-.408-1.021-.508-.397-.101-1.018-.152-1.865-.152h-1.188v7.135zM101.725 10.833l-1.146-2.598h-3.997l-1.173 2.598h-1.72L98.573.346l4.88 10.487h-1.73zm-4.533-3.966h2.812L98.97 4.564c-.059-.148-.12-.315-.187-.505-.066-.19-.128-.404-.194-.637-.054.221-.113.427-.175.618-.062.19-.124.365-.19.528l-1.033 2.3z" transform="translate(-822 -120) translate(742 120) translate(80) translate(90.891 58.652)"/>
                    </g>
                </g>
            </g>
        </g>
    </g>
</svg>
