<svg xmlns="http://www.w3.org/2000/svg" width="137" height="40" viewBox="0 0 137 40">
    <defs>
        <linearGradient id="zkouwg80ia" x1="61.198%" x2="26.153%" y1="4.948%" y2="71.907%">
            <stop offset="0%" stop-color="#00A0FF"/>
            <stop offset="1%" stop-color="#00A1FF"/>
            <stop offset="26%" stop-color="#00BEFF"/>
            <stop offset="51%" stop-color="#00D2FF"/>
            <stop offset="76%" stop-color="#00DFFF"/>
            <stop offset="100%" stop-color="#00E3FF"/>
        </linearGradient>
        <linearGradient id="x3boy3n9nb" x1="107.685%" x2="-130.64%" y1="50%" y2="50%">
            <stop offset="0%" stop-color="#FFE000"/>
            <stop offset="41%" stop-color="#FFBD00"/>
            <stop offset="78%" stop-color="orange"/>
            <stop offset="100%" stop-color="#FF9C00"/>
        </linearGradient>
        <linearGradient id="6ebgb3uphc" x1="86.219%" x2="-50.15%" y1="31.191%" y2="134.728%">
            <stop offset="0%" stop-color="#FF3A44"/>
            <stop offset="100%" stop-color="#C31162"/>
        </linearGradient>
        <linearGradient id="y4x8skkjqd" x1="-18.754%" x2="42.121%" y1="-10.926%" y2="35.313%">
            <stop offset="0%" stop-color="#32A071"/>
            <stop offset="7%" stop-color="#2DA771"/>
            <stop offset="48%" stop-color="#15CF74"/>
            <stop offset="80%" stop-color="#06E775"/>
            <stop offset="100%" stop-color="#00F076"/>
        </linearGradient>
    </defs>
    <g fill="none" fill-rule="evenodd">
        <g fill-rule="nonzero">
            <g>
                <g transform="translate(-167 -731) translate(30 731) translate(137.6)">
                    <rect width="136" height="40" fill="#000" rx="9"/>
                    <path fill="#A6A6A6" d="M130.963.8c2.337 0 4.231 1.88 4.231 4.2v30c0 2.32-1.894 4.2-4.231 4.2H5.037C2.7 39.2.806 37.32.806 35V5C.806 2.68 2.7.8 5.037.8h125.926zm0-.8H5.037C2.255 0 0 2.239 0 5v30c0 2.761 2.255 5 5.037 5h125.926c2.782 0 5.037-2.239 5.037-5V5c0-2.761-2.255-5-5.037-5z"/>
                    <path fill="#FFF" d="M68.645 21.75c-2.362.011-4.269 1.919-4.262 4.263.008 2.345 1.927 4.24 4.289 4.237 2.362-.004 4.274-1.905 4.274-4.25.017-1.136-.432-2.23-1.243-3.03-.81-.802-1.914-1.242-3.058-1.22zm0 6.83c-1.065.074-2.067-.506-2.527-1.462-.46-.955-.284-2.093.442-2.869.727-.776 1.858-1.031 2.852-.645.993.387 1.648 1.337 1.65 2.396.033.663-.205 1.31-.66 1.796-.455.486-1.09.769-1.757.784zm-9.38-6.83c-2.362.006-4.274 1.91-4.27 4.257.003 2.346 1.92 4.245 4.284 4.243 2.363-.002 4.278-1.904 4.278-4.25.017-1.136-.432-2.23-1.243-3.03-.81-.802-1.914-1.242-3.058-1.22h.01zm0 6.83c-1.064.078-2.07-.499-2.532-1.454-.464-.955-.291-2.095.435-2.872.725-.778 1.857-1.036 2.852-.65.995.385 1.65 1.336 1.653 2.396.033.663-.205 1.31-.66 1.796-.455.486-1.09.769-1.757.784h.01zm-11.171-5.52v1.8h4.352c-.069.848-.424 1.648-1.008 2.27-.88.89-2.099 1.37-3.354 1.32-2.671 0-4.836-2.149-4.836-4.8s2.165-4.8 4.836-4.8c1.226-.02 2.411.444 3.294 1.29l1.28-1.27c-1.205-1.21-2.851-1.885-4.564-1.87-2.44-.094-4.735 1.144-5.983 3.226-1.247 2.082-1.247 4.676 0 6.758 1.248 2.082 3.544 3.32 5.983 3.226 1.744.078 3.438-.596 4.644-1.85 1.055-1.151 1.619-2.664 1.571-4.22.004-.379-.03-.757-.1-1.13l-6.115.05zm45.645 1.4c-.538-1.57-1.996-2.649-3.667-2.71-1.114-.002-2.179.453-2.942 1.259-.763.805-1.157 1.888-1.087 2.991-.025 1.13.414 2.22 1.216 3.022.801.801 1.897 1.245 3.035 1.228 1.431.008 2.77-.699 3.566-1.88l-1.46-1c-.444.734-1.244 1.182-2.106 1.18-.893.034-1.716-.478-2.075-1.29l5.732-2.35-.212-.45zm-5.843 1.42c-.041-.625.173-1.24.594-1.706.42-.467 1.013-.746 1.643-.774.664-.043 1.29.31 1.591.9l-3.828 1.58zM83.242 30h1.884V17.5h-1.884V30zm-3.083-7.3h-.07c-.574-.637-1.395-1.001-2.257-1-2.286.11-4.083 1.982-4.083 4.255 0 2.273 1.797 4.145 4.083 4.255.864.014 1.69-.352 2.257-1h.06v.61c0 1.63-.876 2.5-2.286 2.5-.961-.022-1.813-.619-2.156-1.51l-1.642.68c.632 1.527 2.135 2.52 3.798 2.51 2.206 0 4.03-1.29 4.03-4.43V22h-1.734v.7zm-2.155 5.88c-1.347-.118-2.38-1.238-2.38-2.58s1.033-2.462 2.38-2.58c.65.033 1.26.326 1.69.811.431.486.646 1.124.596 1.769.056.648-.158 1.29-.592 1.778-.434.487-1.05.777-1.705.802h.01zm24.56-11.08h-4.503V30h1.884v-4.74h2.63c1.463.104 2.862-.611 3.626-1.855.764-1.244.764-2.806 0-4.05-.764-1.244-2.163-1.96-3.627-1.855h-.01zm0 6h-2.63v-4.26h2.67c1.194 0 2.161.96 2.161 2.145s-.967 2.145-2.16 2.145l-.04-.03zm11.616-1.8c-1.402-.083-2.72.667-3.355 1.91l1.672.69c.337-.616 1.009-.977 1.713-.92.483-.056.968.083 1.347.386.38.302.62.744.668 1.224v.13c-.605-.318-1.28-.483-1.965-.48-1.803 0-3.627 1-3.627 2.81.036.78.389 1.512.977 2.03.588.518 1.362.778 2.146.72.967.069 1.894-.391 2.418-1.2h.06v1h1.814v-4.81c0-2.19-1.672-3.46-3.818-3.46l-.05-.03zm-.232 6.85c-.615 0-1.471-.31-1.471-1.06 0-1 1.068-1.33 2.015-1.33.598-.015 1.19.13 1.712.42-.13 1.12-1.07 1.973-2.206 2l-.05-.03zM124.657 22l-2.156 5.42h-.06L120.203 22h-2.015l3.355 7.58-1.914 4.21h1.964L126.752 22h-2.095zm-16.935 8h1.884V17.5h-1.884V30z"/>
                    <path fill="#FFF" stroke="#FFF" stroke-width=".2" d="M47.771 10.24c.035.741-.238 1.464-.755 2-.578.596-1.384.92-2.217.89-1.277-.01-2.423-.779-2.91-1.951-.485-1.172-.216-2.52.684-3.419.585-.593 1.39-.918 2.226-.9.426-.001.848.084 1.24.25.364.146.689.376.946.67l-.533.53c-.408-.481-1.02-.744-1.653-.71-.635-.003-1.245.251-1.688.704-.443.453-.68 1.065-.659 1.696-.013.953.552 1.82 1.434 2.2.881.378 1.905.193 2.596-.47.31-.333.489-.766.503-1.22H44.8v-.72h2.932c.027.149.04.3.04.45h0zm4.614-2.5h-2.72v1.9h2.478v.72h-2.478v1.9h2.72V13H48.86V7h3.526v.74zM55.69 13h-.775V7.74H53.22V7h4.201v.74H55.69V13zm4.695 0V7h.776v6h-.776zm4.221 0h-.776V7.74h-1.692V7h4.15v.74h-1.682V13zm9.55-.78c-1.226 1.21-3.206 1.21-4.432 0-1.189-1.249-1.189-3.201 0-4.45.586-.586 1.384-.916 2.216-.916.832 0 1.63.33 2.216.916 1.194 1.247 1.194 3.203 0 4.45h0zm-3.858-.5c.908.898 2.376.898 3.284 0 .892-.976.892-2.464 0-3.44-.908-.898-2.376-.898-3.284 0-.892.976-.892 2.464 0 3.44h0zM76.14 13V7h.947l2.941 4.67V7h.776v6h-.806l-3.072-4.89V13h-.786z"/>
                    <g>
                        <path fill="url(#zkouwg80ia)" d="M1.45.54c-.328.391-.493.892-.463 1.4v22.12c-.03.508.135 1.009.464 1.4l.07.07 12.482-12.38v-.29L1.521.47l-.07.07z" transform="translate(9.067 7)"/>
                        <path fill="url(#x3boy3n9nb)" d="M18.133 17.28l-4.13-4.13v-.29l4.13-4.14.091.05 4.946 2.79c1.41.79 1.41 2.09 0 2.89l-4.926 2.78-.11.05z" transform="translate(9.067 7)"/>
                        <path fill="url(#6ebgb3uphc)" d="M18.254 17.22L14.003 13 1.451 25.46c.593.518 1.473.543 2.095.06l14.718-8.3" transform="translate(9.067 7)"/>
                        <path fill="url(#y4x8skkjqd)" d="M18.254 8.78L3.536.48C2.914-.003 2.034.022 1.441.54L14.003 13l4.251-4.22z" transform="translate(9.067 7)"/>
                        <path fill="#000" d="M18.133 17.13L3.536 25.38c-.597.443-1.417.443-2.015 0l-.07.07.07.07c.596.447 1.419.447 2.015 0l14.718-8.3-.12-.09z" opacity=".2" transform="translate(9.067 7)"/>
                        <path fill="#000" d="M1.45 25.32c-.328-.391-.493-.892-.463-1.4v.15c-.03.508.135 1.009.464 1.4l.07-.07-.07-.08zM23.17 14.3l-5.037 2.83.091.09 4.946-2.78c.572-.266.956-.816 1.008-1.44-.115.565-.487 1.045-1.008 1.3z" opacity=".12" transform="translate(9.067 7)"/>
                        <path fill="#FFF" d="M3.536.62L23.17 11.7c.52.255.893.735 1.008 1.3-.052-.624-.436-1.174-1.008-1.44L3.536.48C2.126-.31.977.35.977 1.95v.15C1.007.49 2.136-.17 3.536.62z" opacity=".25" transform="translate(9.067 7)"/>
                    </g>
                </g>
            </g>
        </g>
    </g>
</svg>
