<svg xmlns="http://www.w3.org/2000/svg" xmlns:xlink="http://www.w3.org/1999/xlink" width="100" height="30" viewBox="0 0 100 30">
    <defs>
        <linearGradient id="k7gl8bmjeb" x1="50%" x2="50%" y1="0%" y2="38.913%">
            <stop offset="0%" stop-color="#FBDA09"/>
            <stop offset="100%" stop-color="#FFBC00"/>
        </linearGradient>
        <linearGradient id="nmakqemr9c" x1="37.516%" x2="54.821%" y1="58.476%" y2="39.083%">
            <stop offset="0%" stop-color="#01E2FF"/>
            <stop offset="100%" stop-color="#01C4FF"/>
        </linearGradient>
        <linearGradient id="jf37pwkhne" x1="20.281%" x2="83.82%" y1="32.433%" y2="69.755%">
            <stop offset="0%" stop-color="#28D781"/>
            <stop offset="100%" stop-color="#02F076"/>
        </linearGradient>
        <linearGradient id="qqf91ctbpf" x1="74.488%" x2="10.108%" y1="35.169%" y2="68.753%">
            <stop offset="0%" stop-color="#F2414E"/>
            <stop offset="100%" stop-color="#E02554"/>
        </linearGradient>
        <path id="0p6o10005a" d="M7.1 4.9c1.09-1.917 2.863-1.911 3.95 0l6.358 11.178c1.091 1.918.182 3.473-2.024 3.473H2.766c-2.209 0-3.111-1.56-2.024-3.473L7.1 4.901z"/>
    </defs>
    <g fill="none" fill-rule="evenodd">
        <g>
            <g>
                <g>
                    <g transform="translate(-1132 -745) translate(0 732) translate(1024 13) translate(108)">
                        <rect width="100" height="29.536" fill="#000" rx="4"/>
                        <path fill="#A6A6A6" fill-rule="nonzero" d="M0 3.363C0 1.506 1.506 0 3.363 0h93.274C98.494 0 100 1.505 100 3.363v22.81c0 1.857-1.506 3.363-3.363 3.363H3.363C1.506 29.536 0 28.03 0 26.173V3.363zm.672 0v22.81c0 1.486 1.205 2.69 2.69 2.69h93.275c1.486 0 2.69-1.204 2.69-2.69V3.363c0-1.486-1.204-2.69-2.69-2.69H3.363c-1.486 0-2.69 1.204-2.69 2.69z"/>
                        <path fill="#8F8F8F" fill-rule="nonzero" d="M0 3.363C0 1.506 1.506 0 3.363 0h93.274C98.494 0 100 1.505 100 3.363v22.81c0 1.857-1.506 3.363-3.363 3.363H3.363C1.506 29.536 0 28.03 0 26.173V3.363zm.336 0v22.81c0 1.672 1.355 3.026 3.027 3.026h93.274c1.671 0 3.027-1.355 3.027-3.026V3.363c0-1.672-1.355-3.027-3.027-3.027H3.363C1.692.336.336 1.691.336 3.363z"/>
                        <g fill="#FFF">
                            <path d="M22.327 0c1.337 0 2.42 1.084 2.42 2.421 0 1.337-1.083 2.421-2.42 2.421s-2.421-1.084-2.421-2.421C19.906 1.084 20.99 0 22.326 0zm0 .74c-.929 0-1.681.752-1.681 1.681s.752 1.681 1.68 1.681c.93 0 1.682-.752 1.682-1.681S23.255.74 22.327.74zM7.868.202V.74L5.918.739v1.413h1.748v.538H5.917v1.479h1.951v.538h-2.69V.202h2.69zM11.634.202V.74L10.49.739v3.968h-.739V.74H8.608V.203h3.026zM18.225.202V.74L17.08.739l.001 3.968h-.74V.74h-1.143V.203h3.027zM13.786.202H14.786V4.708H13.786zM26.092 1.19v3.517h-.739V.202h.874l2.017 3.296V.202h.74v4.505h-.74l-2.152-3.516z" transform="translate(30.666 4.976)"/>
                            <g>
                                <path d="M2.406 2.163L4.432 2.163 4.412 2.804 2.406 2.804z" transform="translate(30.666 4.976) translate(0 .067)"/>
                                <path d="M2.376 0c.687 0 1.264.24 1.658.656l-.464.462C3.28.823 2.87.661 2.396.661 1.45.661.682 1.428.682 2.374c0 .946.767 1.712 1.714 1.712s1.62-.546 1.618-1.712c.002-.072 0-.143-.005-.211H4.6l.001.024c.214 1.572-.81 2.502-2.077 2.558l-.148.003C1.064 4.746 0 3.685 0 2.374 0 1.063 1.064 0 2.376 0z" transform="translate(30.666 4.976) translate(0 .067)"/>
                            </g>
                        </g>
                        <g fill="#FFF">
                            <g>
                                <path d="M4.149 0s2.195.373 2.195 2.894c0 2.52-2.195 2.893-2.195 2.893H.336V0H4.15zm-.485 1.4H1.076v3.106H3.67c.09-.003 1.172-.065 1.172-1.553C4.842 1.4 3.664 1.4 3.664 1.4z" transform="translate(30.33 12.912) translate(41.964 .336)"/>
                                <path d="M0 0H1.345V9.415H0z" transform="translate(30.33 12.912) translate(41.964 .336)"/>
                            </g>
                            <path d="M49.092.336H50.437V9.751H49.092zM54.03 3.497c2.261 0 2.709 1.507 2.736 2.099l.001.05v4.102h-1.345v-.67c-.37.305-.962.593-1.898.652-2 .125-2.134-1.57-2.143-1.904l-.001-.05V7.63c.008-.429.147-1.618 1.599-1.834 1.208-.18 2.054.12 2.444.31v-.274c-.095-.366-.391-1.043-1.285-1.043-1.225 0-1.495.662-1.495.662l-1.12-.662.013-.025.041-.07c.189-.3.886-1.197 2.453-1.197zm-1.385 4.322c-.09 1.455 2.486.756 2.716-.276 0-.328-.035-.482-.035-.482s-2.591-.698-2.681.758zM58.238 3.699l1.725 4.098 1.712-4.066h1.345l-3.639 8.643h-1.345l1.254-2.98L56.893 3.7h1.345zM36.108 3.497c1.944 0 2.65 1.785 2.808 2.278l.028.092.009.033-4.254 1.758s.275.972 1.553.978c1.002.005 1.567-.887 1.567-.887l1.08.73s-.871 1.41-2.655 1.41c-2.192 0-3.157-1.917-3.157-3.162 0-1.2.766-3.23 3.021-3.23zm-.13 1.24c-1.736.318-1.518 1.837-1.518 1.837l2.874-1.173s-.535-.814-1.356-.664zM31.069.336H32.492V9.731H31.069zM27.03 3.498c1.19-.033 1.762.79 1.762.79V3.7l1.316.012V9.64c0 1.514-.902 3.113-3.025 3.113-2.123 0-2.809-1.881-2.809-1.881l1.208-.508s.369 1.16 1.664 1.16c1.474 0 1.646-1.342 1.646-1.802V9.08s-.51.799-1.777.799c-1.374 0-3.007-1.178-3.007-3.184 0-2.007 1.538-3.155 3.023-3.197zm.097 1.25c-.959 0-1.737.88-1.737 1.963 0 1.084.778 1.963 1.737 1.963.96 0 1.737-.879 1.737-1.963 0-1.083-.778-1.962-1.737-1.962zM20.216 3.497c1.768 0 3.201 1.43 3.201 3.194 0 1.765-1.433 3.195-3.201 3.195s-3.202-1.43-3.202-3.195c0-1.764 1.434-3.194 3.202-3.194zm-.021 1.253c-.994 0-1.8.869-1.8 1.941 0 1.073.806 1.942 1.8 1.942s1.8-.87 1.8-1.942-.806-1.941-1.8-1.941zM13.289 3.497c1.768 0 3.202 1.43 3.202 3.194 0 1.765-1.434 3.195-3.202 3.195s-3.202-1.43-3.202-3.195c0-1.764 1.434-3.194 3.202-3.194zm-.02 1.253c-.995 0-1.8.869-1.8 1.941 0 1.073.805 1.942 1.8 1.942.993 0 1.799-.87 1.799-1.942s-.806-1.941-1.8-1.941z" transform="translate(30.33 12.912)"/>
                            <g>
                                <path d="M5.022 4.51L9.249 4.51 9.207 5.846 5.022 5.846z" transform="translate(30.33 12.912)"/>
                                <path d="M4.96 0C6.39 0 7.593.5 8.416 1.366l-.967.965C6.847 1.715 5.99 1.378 5 1.378c-1.976 0-3.578 1.598-3.578 3.57 0 1.972 1.602 3.57 3.578 3.57 1.976 0 3.38-1.14 3.376-3.57.004-.15 0-.296-.01-.439h1.234l.001.05c.454 3.324-1.751 5.27-4.45 5.336l-.193.001C2.22 9.892 0 7.681 0 4.948 0 2.215 2.22 0 4.96 0z" transform="translate(30.33 12.912)"/>
                            </g>
                        </g>
                        <g transform="translate(7.33 4.245)">
                            <mask id="3mclkpliwd" fill="#fff">
                                <use xlink:href="#0p6o10005a"/>
                            </mask>
                            <use fill="url(#k7gl8bmjeb)" transform="rotate(90 9.075 10.49)" xlink:href="#0p6o10005a"/>
                            <path fill="url(#nmakqemr9c)" d="M0 0.993L9.401 10.337 -0.121 20.049z" mask="url(#3mclkpliwd)"/>
                            <path fill="url(#jf37pwkhne)" d="M-1.933 -0.93L9.399 10.339 12.769 7.125z" mask="url(#3mclkpliwd)"/>
                            <path fill="url(#qqf91ctbpf)" d="M9.401 10.337L14.559 15.536 -0.85 20.735z" mask="url(#3mclkpliwd)"/>
                        </g>
                    </g>
                </g>
            </g>
        </g>
    </g>
</svg>
