<svg xmlns="http://www.w3.org/2000/svg" xmlns:xlink="http://www.w3.org/1999/xlink" width="46" height="35" viewBox="0 0 46 35">
    <defs>
        <path id="1agigva5ea" d="M0.008 0.014L4.098 0.014 4.098 3.817 0.008 3.817z"/>
        <path id="ry0n2j3y9c" d="M0 33.786L34.002 33.786 34.002 0.049 0 0.049z"/>
        <path id="2b4cecimze" d="M0.044 0.012L2.251 0.012 2.251 2.249 0.044 2.249z"/>
        <path id="z0u1hjgndg" d="M0 0.043L2.207 0.043 2.207 2.28 0 2.28z"/>
        <path id="n6tigqc2li" d="M5.101.021c-.848 0-2.019.557-2.985 1.3C1.372 1.89.758 2.55.387 3.174c-.418.704-.486 1.308-.192 1.701.042.057.091.109.147.154l.366-.465c-.017-.015-.032-.03-.046-.048C.53 4.338.617 3.942.89 3.481c.334-.561.895-1.16 1.58-1.686C3.982.633 5.28.414 5.544.768c.017.022.03.047.04.075l.554-.196C6.108.56 6.065.48 6.012.408 5.81.138 5.49.021 5.102.021H5.1"/>
        <path id="h98cwxnlul" d="M4.342.13c-.694.194-1.485.614-2.229 1.185C.703 2.398-.449 4.012.193 4.87c.194.26.512.39.922.39.488 0 1.107-.184 1.803-.549l-.269-.528c-.778.408-1.74.661-1.989.328-.264-.354.296-1.56 1.808-2.722.685-.526 1.406-.911 2.029-1.085.511-.142.912-.12 1.045.058.247.331-.248 1.195-.84 1.84l.43.406C6.107 1.945 6.434.97 6.01.403 5.818.147 5.5.017 5.088.017c-.223 0-.473.038-.746.114"/>
        <path id="9rl6zpe1uo" d="M1.17.717C.469 1.259.224 1.6.155 1.815l-.134.103 1.673 2.236.467-.36L.757 1.918c.096-.131.339-.395.769-.727.428-.332.743-.5.894-.559l1.394 1.864.468-.36L2.8.154c-.037-.049-.106-.14-.285-.14-.225 0-.623.144-1.345.703"/>
        <path id="mvegwhcklr" d="M2.574.646l-1.35 1.038c-.99.76-1.432 2.039-1.127 3.258l.569-.146c-.247-.987.11-2.023.912-2.638l1.35-1.038C3.719.515 4.787.44 5.652.927l.286-.52c-.468-.264-.985-.395-1.5-.395-.66 0-1.316.214-1.863.634"/>
        <path id="412k2c9ltu" d="M8.324.219c-1.328.37-2.848 1.178-4.28 2.278C2.61 3.597 1.43 4.861.72 6.057c-.758 1.275-.898 2.348-.395 3.02l.467-.359c-.342-.458-.185-1.317.43-2.354.674-1.133 1.8-2.337 3.175-3.393C5.772 1.916 7.22 1.142 8.479.792c1.153-.32 2.01-.241 2.353.217.03.04.055.083.078.128l.525-.265C11.397.794 11.351.719 11.3.65c-.32-.428-.865-.646-1.584-.646-.41 0-.877.071-1.392.215"/>
        <path id="w72sr6dggx" d="M.032.393c.052.069.11.134.174.192L.6.145C.563.11.53.072.5.033L.032.393z"/>
        <path id="t1rvtyh4oA" d="M9.726.033c-.411 0-.878.071-1.393.215-1.328.37-2.848 1.178-4.28 2.278C2.62 3.626 1.44 4.89.73 6.086c-.757 1.275-.898 2.348-.395 3.02.323.432.862.65 1.575.65.538 0 1.174-.124 1.89-.372l-.189-.563c-1.37.474-2.42.447-2.808-.074-.343-.459-.186-1.317.43-2.354C1.906 5.26 3.033 4.056 4.407 3 5.781 1.945 7.231 1.171 8.488.821c1.153-.32 2.01-.241 2.353.217.39.521.131 1.554-.691 2.763l.483.337c1.002-1.473 1.242-2.701.676-3.46-.32-.427-.865-.645-1.583-.645"/>
        <path id="8lcc85179D" d="M5.593.445c-.733.378-1.636.97-2.543 1.666-.906.696-1.713 1.417-2.27 2.03-.7.77-.908 1.253-.675 1.565L9.2 17.859l.468-.36L.606 5.39c.072-.292.938-1.376 2.799-2.805C5.25 1.167 6.51.613 6.82.613h.007l9.059 12.105.467-.36L7.262.21C7.168.084 7.029.021 6.836.021c-.286 0-.692.14-1.243.424"/>
        <path id="p08ys3z66G" d="M0.015 0.043L2.652 0.043 2.652 2.212 0.015 2.212z"/>
        <path id="1vupfdrfnI" d="M0.046 0.019L2.683 0.019 2.683 2.188 0.046 2.188z"/>
        <path id="tyztgarjbK" d="M0.018 0.055L2.655 0.055 2.655 2.224 0.018 2.224z"/>
        <path id="7l7zt4dwwM" d="M0.048 0.031L2.686 0.031 2.686 2.201 0.048 2.201z"/>
        <path id="0qjwpoipsO" d="M11.006.052l2.354 3.146-.468.36L10.934.94l-.018.016C10.3 1.493 8.77 2.628 6.87 2.628h-.04c-.719-.006-1.49-.175-2.283-.601l-.052-.028C2.79 1.092 1.708.891 1.095.885l5.579 7.454-.468.36L.035.45.479.35.497.345C1.08.217 2.407.205 4.82 1.501l.038.02c1.241.653 2.567.681 3.942.085l.033-.015C9.904 1.12 10.632.425 10.768.29l.238-.237z"/>
        <path id="rvsiuo53cR" d="M.78.003h.026C.833.004.86.006.886.01l.022.004c.195.032.368.138.488.299L5.8 6.203l.014.02c.095.134.141.291.142.447v.03c-.008.228-.112.45-.305.598l-.019.014c-.131.095-.286.145-.445.145H5.16c-.027-.001-.054-.004-.08-.007l-.022-.004c-.195-.033-.368-.138-.488-.299L.166 1.257l-.013-.018C.038 1.076-.01.878.017.678L.02.656C.053.458.157.283.315.162.451.058.613.002.78.002M.78.599H.768C.734.601.699.613.67.636L.66.644C.626.674.605.714.598.759v.013c-.004.045.009.09.036.126l4.404 5.89.008.01c.029.034.069.056.114.063l.025.001H5.2c.035-.003.069-.016.097-.038l.01-.007c.073-.064.085-.176.026-.255L.928.672.92.662C.884.62.833.598.781.598"/>
        <path id="54kzk0h23U" d="M5.423.178c-.84.26-1.81.791-2.73 1.498-.92.707-1.688 1.51-2.162 2.26C.005 4.768-.104 5.47.226 5.91c.211.283.551.403.966.403.9 0 2.152-.568 3.207-1.29l-.329-.492C2.284 5.755.961 5.91.693 5.552c-.162-.218-.035-.714.333-1.296.437-.693 1.155-1.44 2.021-2.106C3.914 1.485 4.818.987 5.594.748 6.246.547 6.752.557 6.915.774c.142.19.063.6-.213 1.095-.324.583-.892 1.244-1.597 1.861l.383.45c.756-.66 1.368-1.377 1.726-2.02.52-.934.379-1.465.169-1.745C7.182.146 6.845.01 6.4.01c-.285 0-.613.056-.978.168"/>
        <path id="ro1ntf97bX" d="M.64.319c-.259.2-.473.473-.503.729l-.1.077 3.172 4.227.467-.36-2.94-3.916C.768 1.014.85.905.996.792c.147-.114.272-.164.339-.18L4.28 4.537l.467-.36L1.752.186C1.664.07 1.532.012 1.374.012 1.162.012.903.116.64.319"/>
        <path id="0pm1v4zdiaa" d="M.504.35C.052.7-.114 1.146.102 1.432c.095.126.238.188.408.188.215 0 .473-.1.726-.296.176-.136.32-.3.405-.463.12-.23.12-.456-.002-.618-.095-.126-.238-.187-.408-.187-.215 0-.473.1-.727.296M.86.823C.92.778.974.744 1.023.72.986.76.94.805.88.849.822.896.767.93.718.956.755.913.802.869.86.823"/>
        <linearGradient id="iztuvy2cfj" x1="53.075%" x2="34.342%" y1="54.384%" y2="33.892%">
            <stop offset="0%" stop-color="#E1E6FF"/>
            <stop offset="100%" stop-color="#9EACFF"/>
        </linearGradient>
        <linearGradient id="1ivzkqjyem" x1="63.733%" x2="32.891%" y1="67.572%" y2="32.581%">
            <stop offset="0%" stop-color="#6989FF"/>
            <stop offset="100%" stop-color="#FFF"/>
        </linearGradient>
        <linearGradient id="a6krncccap" x1="20.081%" x2="81.165%" y1="72.482%" y2="26.58%">
            <stop offset="0%" stop-color="#6989FF"/>
            <stop offset="100%" stop-color="#FFF"/>
        </linearGradient>
        <linearGradient id="zkukarwk1s" x1="44.409%" x2="51.924%" y1="87.583%" y2="13.699%">
            <stop offset="0%" stop-color="#6989FF"/>
            <stop offset="100%" stop-color="#FFF"/>
        </linearGradient>
        <linearGradient id="bk16njuicv" x1="35.515%" x2="52.385%" y1="35.551%" y2="53.5%">
            <stop offset="0%" stop-color="#E1E6FF"/>
            <stop offset="100%" stop-color="#9EACFF"/>
        </linearGradient>
        <linearGradient id="6n57rjv2ey" x1="38.73%" x2="66.025%" y1="35.356%" y2="70.827%">
            <stop offset="0%" stop-color="#E1E6FF"/>
            <stop offset="100%" stop-color="#9EACFF"/>
        </linearGradient>
        <linearGradient id="ib0kd9jnsB" x1="62.22%" x2="34.859%" y1="63.444%" y2="32.692%">
            <stop offset="0%" stop-color="#6989FF"/>
            <stop offset="100%" stop-color="#FFF"/>
        </linearGradient>
        <linearGradient id="sre1vdzbzE" x1="30.259%" x2="69.027%" y1="80.741%" y2="19.237%">
            <stop offset="0%" stop-color="#6989FF"/>
            <stop offset="100%" stop-color="#FFF"/>
        </linearGradient>
        <linearGradient id="7hbjz3blkP" x1="32.232%" x2="85.874%" y1="58.915%" y2="32.001%">
            <stop offset="0%" stop-color="#4D9CFF"/>
            <stop offset="100%" stop-color="#285BFF"/>
        </linearGradient>
        <linearGradient id="2lmytow5xS" x1="21.778%" x2="78.874%" y1="1.82%" y2="97.558%">
            <stop offset="0%" stop-color="#4D9CFF"/>
            <stop offset="100%" stop-color="#285BFF"/>
        </linearGradient>
        <linearGradient id="4kk68yycpV" x1="64.695%" x2="35.322%" y1="66.308%" y2="33.428%">
            <stop offset="0%" stop-color="#6989FF"/>
            <stop offset="100%" stop-color="#FFF"/>
        </linearGradient>
        <linearGradient id="ah2dte3dlY" x1="37.554%" x2="62.937%" y1="60.912%" y2="38.659%">
            <stop offset="0%" stop-color="#4D9CFF"/>
            <stop offset="100%" stop-color="#285BFF"/>
        </linearGradient>
        <linearGradient id="fjebw4oyzab" x1="69.585%" x2="27.104%" y1="76.818%" y2="25.572%">
            <stop offset="0%" stop-color="#4D9CFF"/>
            <stop offset="100%" stop-color="#285BFF"/>
        </linearGradient>
    </defs>
    <g fill="none" fill-rule="evenodd">
        <g>
            <g>
                <g>
                    <g>
                        <path d="M0 0H46V34.5H0z" opacity=".116" transform="translate(-81 -198) translate(59 171) translate(16 16) translate(6 11)"/>
                        <g>
                            <g transform="translate(-81 -198) translate(59 171) translate(16 16) translate(6 11) translate(5.98) translate(0 .01)">
                                <path fill="#FCAE3D" d="M19.848 2.115c-.298 0-.587.157-.745.437-.236.416-.093.948.317 1.186l3.524 2.046c.41.238.936.094 1.17-.322.115-.202.144-.436.084-.66-.06-.224-.202-.411-.401-.527L20.273 2.23c-.134-.078-.28-.115-.425-.115m3.52 4.379c-.243 0-.49-.063-.716-.194L19.13 4.254c-.692-.401-.932-1.298-.536-1.998s1.28-.944 1.972-.543l3.524 2.046c.334.195.574.51.676.887.1.377.05.772-.141 1.112-.267.471-.755.736-1.256.736"/>
                                <g transform="translate(20.717 2.677)">
                                    <mask id="gkkddf9hfb" fill="#fff">
                                        <use xlink:href="#1agigva5ea"/>
                                    </mask>
                                    <path fill="#F71D66" d="M.63 2.18l1.597.927c.41.238.935.094 1.17-.322.114-.201.144-.436.084-.66-.06-.224-.203-.41-.402-.526L1.482.67c-.1.122-.27.36-.477.725C.8 1.762.682 2.03.63 2.18m2.022 1.637c-.244 0-.49-.062-.716-.194L.173 2.6c-.28-.162-.135-.526-.058-.722.086-.22.222-.495.381-.777C.656.819.822.56.965.374c.127-.166.365-.477.644-.314l1.762 1.023c.335.194.575.509.676.886.101.378.051.772-.14 1.112-.267.471-.755.736-1.256.736" mask="url(#gkkddf9hfb)"/>
                                </g>
                                <mask id="np1lqoorsd" fill="#fff">
                                    <use xlink:href="#ry0n2j3y9c"/>
                                </mask>
                                <path fill="#4E73FF" d="M29.39 14.315L32.679 14.315 32.679 13.72 29.39 13.72z" mask="url(#np1lqoorsd)"/>
                                <path fill="#4E73FF" d="M31.035 12.644c-.748 0-1.356.616-1.356 1.374 0 .758.608 1.374 1.356 1.374.747 0 1.356-.616 1.356-1.374 0-.758-.609-1.374-1.356-1.374m0 3.343c-1.072 0-1.943-.883-1.943-1.97 0-1.085.871-1.968 1.943-1.968 1.07 0 1.943.883 1.943 1.969s-.872 1.969-1.943 1.969" mask="url(#np1lqoorsd)"/>
                                <g mask="url(#np1lqoorsd)">
                                    <g transform="translate(22.83 10.945)">
                                        <mask id="lw5viah2df" fill="#fff">
                                            <use xlink:href="#2b4cecimze"/>
                                        </mask>
                                        <path fill="#F71D66" d="M1.147.607c-.285 0-.516.235-.516.524 0 .289.231.523.516.523.285 0 .517-.234.517-.523 0-.29-.232-.524-.517-.524m0 1.642C.54 2.25.044 1.748.044 1.131.044.514.539.012 1.147.012c.609 0 1.104.502 1.104 1.119s-.495 1.118-1.104 1.118" mask="url(#lw5viah2df)"/>
                                    </g>
                                </g>
                                <g mask="url(#np1lqoorsd)">
                                    <g transform="translate(0 10.588)">
                                        <mask id="oxsehm0cwh" fill="#fff">
                                            <use xlink:href="#z0u1hjgndg"/>
                                        </mask>
                                        <path fill="#F71D66" d="M1.104.637c-.285 0-.517.235-.517.524 0 .289.232.524.517.524.285 0 .517-.235.517-.524 0-.289-.232-.524-.517-.524m0 1.643C.495 2.28 0 1.778 0 1.16S.495.043 1.104.043c.608 0 1.103.501 1.103 1.118 0 .617-.495 1.119-1.103 1.119" mask="url(#oxsehm0cwh)"/>
                                    </g>
                                </g>
                                <path fill="#4E73FF" d="M8.95 26.435l.466 1.603c.014.047.045.086.087.109.042.023.09.029.137.015l.67-.2c.046-.014.084-.045.107-.088.023-.043.028-.092.015-.139l-.467-1.603 1.582-.473c.046-.014.084-.045.107-.088.023-.043.029-.092.015-.138l-.198-.68c-.028-.096-.128-.151-.223-.123l-1.582.473-.467-1.604c-.028-.096-.128-.151-.223-.123l-.67.2c-.095.029-.15.13-.122.226l.467 1.604-1.582.473c-.047.014-.085.045-.108.087-.022.043-.028.092-.014.14l.197.678c.014.047.045.086.087.109.042.023.09.028.137.015l1.582-.473zm.64 2.33c-.332 0-.638-.22-.736-.558l-.301-1.033-1.02.304c-.196.059-.403.037-.583-.063-.18-.099-.31-.263-.368-.462l-.198-.68c-.12-.41.113-.844.519-.965l1.019-.304-.3-1.033c-.12-.411.112-.844.518-.965l.67-.2c.405-.122.833.114.952.525l.3 1.033 1.02-.304.083.285-.083-.285c.406-.122.833.114.952.525l.198.68c.058.198.036.408-.062.59-.098.183-.26.316-.457.374l-1.019.305.3 1.033c.058.2.036.41-.062.591-.098.183-.26.315-.456.374l-.67.2c-.072.022-.145.032-.217.032z" mask="url(#np1lqoorsd)"/>
                            </g>
                            <g transform="translate(-81 -198) translate(59 171) translate(16 16) translate(6 11) translate(5.98) translate(5.928 3.163)">
                                <mask id="s5xookw82k" fill="#fff">
                                    <use xlink:href="#n6tigqc2li"/>
                                </mask>
                                <path fill="url(#iztuvy2cfj)" d="M5.101.021c-.848 0-2.019.557-2.985 1.3C1.372 1.89.758 2.55.387 3.174c-.418.704-.486 1.308-.192 1.701.042.057.091.109.147.154l.366-.465c-.017-.015-.032-.03-.046-.048C.53 4.338.617 3.942.89 3.481c.334-.561.895-1.16 1.58-1.686C3.982.633 5.28.414 5.544.768c.017.022.03.047.04.075l.554-.196C6.108.56 6.065.48 6.012.408 5.81.138 5.49.021 5.102.021H5.1" mask="url(#s5xookw82k)"/>
                            </g>
                            <g transform="translate(-81 -198) translate(59 171) translate(16 16) translate(6 11) translate(5.98) translate(6.104 3.4)">
                                <mask id="433y4bcagn" fill="#fff">
                                    <use xlink:href="#h98cwxnlul"/>
                                </mask>
                                <path fill="url(#1ivzkqjyem)" d="M4.342.13c-.694.194-1.485.614-2.229 1.185C.703 2.398-.449 4.012.193 4.87c.194.26.512.39.922.39.488 0 1.107-.184 1.803-.549l-.269-.528c-.778.408-1.74.661-1.989.328-.264-.354.296-1.56 1.808-2.722.685-.526 1.406-.911 2.029-1.085.511-.142.912-.12 1.045.058.247.331-.248 1.195-.84 1.84l.43.406C6.107 1.945 6.434.97 6.01.403 5.818.147 5.5.017 5.088.017c-.223 0-.473.038-.746.114" mask="url(#433y4bcagn)"/>
                            </g>
                            <g transform="translate(-81 -198) translate(59 171) translate(16 16) translate(6 11) translate(5.98) translate(7.63 4.769)">
                                <mask id="e9jcqfcvjq" fill="#fff">
                                    <use xlink:href="#9rl6zpe1uo"/>
                                </mask>
                                <path fill="url(#a6krncccap)" d="M1.17.717C.469 1.259.224 1.6.155 1.815l-.134.103 1.673 2.236.467-.36L.757 1.918c.096-.131.339-.395.769-.727.428-.332.743-.5.894-.559l1.394 1.864.468-.36L2.8.154c-.037-.049-.106-.14-.285-.14-.225 0-.623.144-1.345.703" mask="url(#e9jcqfcvjq)"/>
                            </g>
                            <g transform="translate(-81 -198) translate(59 171) translate(16 16) translate(6 11) translate(5.98) translate(8.569 6.434)">
                                <mask id="x7dx9ra7dt" fill="#fff">
                                    <use xlink:href="#mvegwhcklr"/>
                                </mask>
                                <path fill="url(#zkukarwk1s)" d="M2.574.646l-1.35 1.038c-.99.76-1.432 2.039-1.127 3.258l.569-.146c-.247-.987.11-2.023.912-2.638l1.35-1.038C3.719.515 4.787.44 5.652.927l.286-.52c-.468-.264-.985-.395-1.5-.395-.66 0-1.316.214-1.863.634" mask="url(#x7dx9ra7dt)"/>
                            </g>
                            <g transform="translate(-81 -198) translate(59 171) translate(16 16) translate(6 11) translate(5.98) translate(7.219 6.137)">
                                <mask id="slk7fytvew" fill="#fff">
                                    <use xlink:href="#412k2c9ltu"/>
                                </mask>
                                <path fill="url(#bk16njuicv)" d="M8.324.219c-1.328.37-2.848 1.178-4.28 2.278C2.61 3.597 1.43 4.861.72 6.057c-.758 1.275-.898 2.348-.395 3.02l.467-.359c-.342-.458-.185-1.317.43-2.354.674-1.133 1.8-2.337 3.175-3.393C5.772 1.916 7.22 1.142 8.479.792c1.153-.32 2.01-.241 2.353.217.03.04.055.083.078.128l.525-.265C11.397.794 11.351.719 11.3.65c-.32-.428-.865-.646-1.584-.646-.41 0-.877.071-1.392.215" mask="url(#slk7fytvew)"/>
                            </g>
                            <g transform="translate(-81 -198) translate(59 171) translate(16 16) translate(6 11) translate(5.98) translate(7.512 14.821)">
                                <mask id="3lt23uzcuz" fill="#fff">
                                    <use xlink:href="#w72sr6dggx"/>
                                </mask>
                                <path fill="url(#6n57rjv2ey)" d="M.032.393c.052.069.11.134.174.192L.6.145C.563.11.53.072.5.033L.032.393z" mask="url(#3lt23uzcuz)"/>
                            </g>
                            <g transform="translate(-81 -198) translate(59 171) translate(16 16) translate(6 11) translate(5.98) translate(7.454 6.434)">
                                <mask id="zs3jl8cjxC" fill="#fff">
                                    <use xlink:href="#t1rvtyh4oA"/>
                                </mask>
                                <path fill="url(#ib0kd9jnsB)" d="M9.726.033c-.411 0-.878.071-1.393.215-1.328.37-2.848 1.178-4.28 2.278C2.62 3.626 1.44 4.89.73 6.086c-.757 1.275-.898 2.348-.395 3.02.323.432.862.65 1.575.65.538 0 1.174-.124 1.89-.372l-.189-.563c-1.37.474-2.42.447-2.808-.074-.343-.459-.186-1.317.43-2.354C1.906 5.26 3.033 4.056 4.407 3 5.781 1.945 7.231 1.171 8.488.821c1.153-.32 2.01-.241 2.353.217.39.521.131 1.554-.691 2.763l.483.337c1.002-1.473 1.242-2.701.676-3.46-.32-.427-.865-.645-1.583-.645" mask="url(#zs3jl8cjxC)"/>
                            </g>
                            <g transform="translate(-81 -198) translate(59 171) translate(16 16) translate(6 11) translate(5.98) translate(9.39 8.1)">
                                <mask id="77a55gfz4F" fill="#fff">
                                    <use xlink:href="#8lcc85179D"/>
                                </mask>
                                <path fill="url(#sre1vdzbzE)" d="M5.593.445c-.733.378-1.636.97-2.543 1.666-.906.696-1.713 1.417-2.27 2.03-.7.77-.908 1.253-.675 1.565L9.2 17.859l.468-.36L.606 5.39c.072-.292.938-1.376 2.799-2.805C5.25 1.167 6.51.613 6.82.613h.007l9.059 12.105.467-.36L7.262.21C7.168.084 7.029.021 6.836.021c-.286 0-.692.14-1.243.424" mask="url(#77a55gfz4F)"/>
                            </g>
                            <g>
                                <g transform="translate(-81 -198) translate(59 171) translate(16 16) translate(6 11) translate(5.98) translate(12.384 10.598) translate(3.404)">
                                    <mask id="irwfl7sggH" fill="#fff">
                                        <use xlink:href="#p08ys3z66G"/>
                                    </mask>
                                    <path fill="#4E73FF" d="M.309 2.212c-.09 0-.177-.04-.235-.118-.097-.13-.072-.317.057-.417L2.181.103c.13-.1.314-.074.412.057.097.131.072.318-.057.417L.486 2.152c-.053.04-.116.06-.177.06" mask="url(#irwfl7sggH)"/>
                                </g>
                                <g transform="translate(-81 -198) translate(59 171) translate(16 16) translate(6 11) translate(5.98) translate(12.384 10.598) translate(5.223 2.498)">
                                    <mask id="mcd4kvhfiJ" fill="#fff">
                                        <use xlink:href="#1vupfdrfnI"/>
                                    </mask>
                                    <path fill="#4E73FF" d="M.34 2.188c-.09 0-.177-.04-.235-.118-.098-.13-.072-.317.057-.416L2.212.079c.13-.099.313-.073.411.058.098.13.073.317-.056.416L.517 2.128c-.054.04-.116.06-.178.06" mask="url(#mcd4kvhfiJ)"/>
                                </g>
                                <g transform="translate(-81 -198) translate(59 171) translate(16 16) translate(6 11) translate(5.98) translate(12.384 10.598) translate(7.101 4.937)">
                                    <mask id="sb1uh7qwoL" fill="#fff">
                                        <use xlink:href="#tyztgarjbK"/>
                                    </mask>
                                    <path fill="#4E73FF" d="M.311 2.224c-.089 0-.176-.04-.234-.118-.098-.13-.072-.317.057-.416L2.184.115c.13-.099.313-.073.411.058.098.13.073.317-.056.416L.489 2.164c-.054.04-.116.06-.178.06" mask="url(#sb1uh7qwoL)"/>
                                </g>
                                <g transform="translate(-81 -198) translate(59 171) translate(16 16) translate(6 11) translate(5.98) translate(12.384 10.598) translate(8.92 7.435)">
                                    <mask id="ov5xqwz7zN" fill="#fff">
                                        <use xlink:href="#7l7zt4dwwM"/>
                                    </mask>
                                    <path fill="#4E73FF" d="M.342 2.2c-.089 0-.176-.04-.234-.117-.098-.131-.073-.318.057-.417L2.215.092c.129-.1.313-.074.411.057.098.13.072.317-.057.417L.52 2.14c-.053.04-.115.06-.177.06" mask="url(#ov5xqwz7zN)"/>
                                </g>
                                <g transform="translate(-81 -198) translate(59 171) translate(16 16) translate(6 11) translate(5.98) translate(12.384 10.598) translate(0 6.662)">
                                    <mask id="32lh3ar6cQ" fill="#fff">
                                        <use xlink:href="#0qjwpoipsO"/>
                                    </mask>
                                    <path fill="url(#7hbjz3blkP)" d="M10.768.29c-.138.136-.878.844-1.967 1.316-1.389.602-2.728.567-3.98-.105C2.382.192 1.054.218.48.349L.035.451 6.206 8.7l.468-.36L1.096.885c.618.006 1.716.211 3.45 1.142.81.434 1.594.601 2.324.601 1.919 0 3.46-1.158 4.064-1.687l1.958 2.617.468-.36L11.006.052l-.238.237z" mask="url(#32lh3ar6cQ)"/>
                                </g>
                                <g transform="translate(-81 -198) translate(59 171) translate(16 16) translate(6 11) translate(5.98) translate(12.384 10.598) translate(1.174 1.368)">
                                    <mask id="jrjc55s9bT" fill="#fff">
                                        <use xlink:href="#rvsiuo53cR"/>
                                    </mask>
                                    <path fill="url(#2lmytow5xS)" d="M.315.162C.151.288.045.472.017.678c-.028.207.025.413.15.579l4.403 5.89c.125.167.305.274.51.303.035.005.071.007.107.007.167 0 .328-.055.464-.159.199-.152.304-.384.305-.619v-.01c0-.162-.052-.326-.156-.466L1.396.313C1.272.146 1.091.039.886.01.852.005.817.003.78.003.613.003.45.058.315.162M5.16 6.86c-.05-.007-.092-.033-.122-.073L.634.898C.604.858.592.808.598.759.605.71.63.666.67.636.703.61.742.598.78.598c.056 0 .111.025.147.074l4.404 5.89c.062.082.046.2-.036.262-.032.025-.07.038-.11.038l-.026-.001" mask="url(#jrjc55s9bT)"/>
                                </g>
                            </g>
                            <g transform="translate(-81 -198) translate(59 171) translate(16 16) translate(6 11) translate(5.98) translate(18.37 20.056)">
                                <mask id="p9u62uqowW" fill="#fff">
                                    <use xlink:href="#54kzk0h23U"/>
                                </mask>
                                <path fill="url(#4kk68yycpV)" d="M5.423.178c-.84.26-1.81.791-2.73 1.498-.92.707-1.688 1.51-2.162 2.26C.005 4.768-.104 5.47.226 5.91c.211.283.551.403.966.403.9 0 2.152-.568 3.207-1.29l-.329-.492C2.284 5.755.961 5.91.693 5.552c-.162-.218-.035-.714.333-1.296.437-.693 1.155-1.44 2.021-2.106C3.914 1.485 4.818.987 5.594.748 6.246.547 6.752.557 6.915.774c.142.19.063.6-.213 1.095-.324.583-.892 1.244-1.597 1.861l.383.45c.756-.66 1.368-1.377 1.726-2.02.52-.934.379-1.465.169-1.745C7.182.146 6.845.01 6.4.01c-.285 0-.613.056-.978.168" mask="url(#p9u62uqowW)"/>
                            </g>
                            <g transform="translate(-81 -198) translate(59 171) translate(16 16) translate(6 11) translate(5.98) translate(21.422 22.673)">
                                <mask id="fkvu1a1ssZ" fill="#fff">
                                    <use xlink:href="#ro1ntf97bX"/>
                                </mask>
                                <path fill="url(#ah2dte3dlY)" d="M.64.319c-.259.2-.473.473-.503.729l-.1.077 3.172 4.227.467-.36-2.94-3.916C.768 1.014.85.905.996.792c.147-.114.272-.164.339-.18L4.28 4.537l.467-.36L1.752.186C1.664.07 1.532.012 1.374.012 1.162.012.903.116.64.319" mask="url(#fkvu1a1ssZ)"/>
                            </g>
                            <g transform="translate(-81 -198) translate(59 171) translate(16 16) translate(6 11) translate(5.98) translate(24.532 26.599)">
                                <mask id="fahk9ppgkac" fill="#fff">
                                    <use xlink:href="#0pm1v4zdiaa"/>
                                </mask>
                                <path fill="url(#fjebw4oyzab)" d="M.504.35C.052.7-.114 1.146.102 1.432c.095.126.238.188.408.188.215 0 .473-.1.726-.296.176-.136.32-.3.405-.463.12-.23.12-.456-.002-.618-.095-.126-.238-.187-.408-.187-.215 0-.473.1-.727.296M.86.823C.92.778.974.744 1.023.72.986.76.94.805.88.849.822.896.767.93.718.956.755.913.802.869.86.823" mask="url(#fahk9ppgkac)"/>
                            </g>
                        </g>
                    </g>
                </g>
            </g>
        </g>
    </g>
</svg>
