<svg xmlns="http://www.w3.org/2000/svg" width="61" height="64" viewBox="0 0 61 64">
    <g fill="none" fill-rule="evenodd">
        <g fill-rule="nonzero">
            <g>
                <g>
                    <g>
                        <g transform="translate(-508 -511) translate(43 407) translate(431 77) translate(16 16) translate(18.33 11.416)">
                            <ellipse cx="29.507" cy="60.326" fill="#DAD6E5" rx="28.734" ry="1"/>
                            <g fill="#FFF" opacity=".35">
                                <g opacity=".3" transform="translate(21.286 4.153) translate(14.307 4.73)">
                                    <path d="M0.008 0.073H11.165V14.66H0.008z"/>
                                    <path d="M0.676 0.938H10.506V13.797H0.676z"/>
                                    <path d="M2.818 9.198H8.364V10.198H2.818zM2.818 10.413H8.364V11.413H2.818zM2.818 11.627H8.364V12.627H2.818z"/>
                                    <ellipse cx="5.587" cy="5.422" rx="2.868" ry="2.838"/>
                                </g>
                                <g opacity=".3">
                                    <path d="M0.033 0.024H9.6V12.531999999999998H0.033z" transform="translate(21.286 4.153) translate(1.123)"/>
                                    <path d="M0.593 0.766H9.023V11.79H0.593z" transform="translate(21.286 4.153) translate(1.123)"/>
                                    <path d="M2.439 6.605H7.194V7.605H2.439zM2.439 3.368H7.194V6.002H2.439z" transform="translate(21.286 4.153) translate(1.123)"/>
                                    <path d="M2.439 7.493H7.194V8.493H2.439z" transform="translate(21.286 4.153) translate(1.123)"/>
                                </g>
                            </g>
                            <path fill="#FFC2A4" d="M51.48 52.625l.899 3.285c.117.426.58.667 1.016.53l5.624-1.783s.176-1.237-2.216-.795c-2.393.442-2.535.273-2.535.273l-1.092-2.273-1.695.763z"/>
                            <path fill="#FCAF3D" d="M52.076 56.735c-.135 0-.261-.081-.312-.212-.068-.171.017-.359.194-.424l7.122-2.676c.177-.065.371.016.439.188.067.171-.017.359-.194.424l-7.122 2.676c-.042.016-.085.024-.127.024z"/>
                            <path fill="#FFC2A4" d="M34.846 17.234L34.318 20.56 37.178 21.338 36.782 17.234z"/>
                            <path fill="#FCB392" d="M36.736 17.773l-1.542-.282-.443.075-.173 1.113s1.084 1.221 2.288 1.113c.018 0 .035-.008.052-.008l-.182-2.01z"/>
                            <path fill="#4E73FF" d="M33.59 17.234s-2.085.025-2.37-2.957c-.345-3.627 3.437-5.39 5.682-3.384 2.252 2.005-3.312 6.341-3.312 6.341z"/>
                            <path fill="#FFC2A4" d="M34.056 17.649s.833 1.246 2.667 1.115c1.833-.132 2.567-2.55 1.566-5.623-.783-2.41-2.4-2.795-4.233-1.828-1.833.967-1.625 4.86 0 6.336z"/>
                            <path fill="#4E73FF" d="M32.238 13.631l.778 1.295s.655-1.689.614-2.492c0 0 1.736.916 3.522.401 2.088-.602 1.515-3.296 1.515-3.296s-1.343 1.343-2.842.804c-1.499-.538-2.53.885-3.063 1.367-.532.482-.524 1.921-.524 1.921z"/>
                            <ellipse cx="32.68" cy="15.386" fill="#FFC2A4" rx="1" ry="1.116" transform="rotate(-20.512 32.68 15.386)"/>
                            <path fill="#4E73FF" d="M35.832 11.078s1.002-.346 1.086-1.282c0 0-1.078.636-2.206.636l-.654.478 1.774.168z"/>
                            <path fill="#264FEB" d="M32.605 34.163s-1.044 3.917.389 6.03c1.433 2.112 13.642 1.787 13.642 1.787l3.661 11.164 4.564-1.536s-4.912-12.659-5.409-13.09c-.497-.43-10.9-2.543-10.9-2.543l-.696-1.43-5.251-.382z"/>
                            <path fill="#FCAF3D" d="M37.133 21.313c-1.692-.49-2.609-1.257-2.609-1.257s-1.073.89-1.725 3.175c-.652 2.285-1.601 11.06-1.601 11.06s2.435.938 5.077.897c2.641-.04 2.724-1.224 2.724-1.224s-.29-7.926-.537-9.207c-.256-1.281-1.329-3.444-1.329-3.444zM25.229 24.673h-3.665c-.28 0-.508-.243-.508-.539v-.718c0-.296.229-.539.508-.539h3.665c.28 0 .508.243.508.539v.718c0 .296-.229.539-.508.539z"/>
                            <g transform="translate(7.014 .049)">
                                <path fill="#FFC2A4" d="M4.599 8.352H6.591V12.137H4.599z"/>
                                <path fill="#FCB392" d="M5.097 8.393l-.498.302v1.452s1.12.187 1.993-.416v-.612c-.44-.4-1.495-.726-1.495-.726z"/>
                                <path fill="#FFC2A4" d="M3.611 8.54c.864.913 2.225 1.256 3.429.832.041-.016.075-.025.116-.04 1.851-.71 2.117-1.934 2.183-3.239.067-1.305-.273-4.266-3.943-3.638-3.678.636-2.573 4.723-2.449 5.18.058.228.374.603.664.905z"/>
                                <path fill="#FCAF3D" d="M5.346.701S3.38.31 1.361 2.626C-.216 4.437.033 8.206.033 8.206s1.52 2.349 5.57 2.186c0 0-3.768-4.152-.78-6.42 1.951-1.492.523-3.27.523-3.27z"/>
                                <path fill="#FCAF3D" d="M4.6 3.344l.497-1.933c3.429-.652 4.118 2.48 4.118 2.48-1.112-.327-3.752.18-3.752.18s-.274-.45-.864-.727z"/>
                                <path fill="#F4F3F7" d="M3.312 4.682S4.624.848 8.21 2.112c0 0 .208-2.039-1.56-2.063C4.88.024 4.01 1.15 3.537 2.129c-.474.979-.225 2.553-.225 2.553z"/>
                                <path fill="#F71D66" d="M7.347 0.824L7.04 0.824 7.04 0.522 6.716 0.522 6.716 0.824 6.409 0.824 6.409 1.142 6.716 1.142 6.716 1.444 7.04 1.444 7.04 1.142 7.347 1.142z"/>
                                <path fill="#FCAF3D" d="M3.918 5.163s1.428-.954 1.096-1.941c-.332-.987-1.536 1.533-1.536 1.533l.44.408z"/>
                                <ellipse cx="3.597" cy="5.904" fill="#FFC2A4" rx="1" ry="1.037" transform="rotate(-15.807 3.597 5.904)"/>
                                <path fill="#FCB392" d="M16.006 22.683c-.033-.17-.075-.301-.075-.301l-1.411-1.42-2.574-.489-.274 1.28h1.329s.348.482.855.955l2.15-.025z"/>
                                <path fill="#F71D66" d="M6.592 11.468s2.166 3.181 2.39 3.875c.225.693-3.735-3.173-3.735-3.173s.913.008 1.345-.702z"/>
                                <path fill="#FFC2A4" d="M5.786 59.021c-1.536-.285-3.08-1.199-3.055-1.37l4.21-21.99-3.861-.229-.888 7.994s-.664 1.737-.997 3.32c-.332 1.574 0 10.497 0 10.497s.009.636-.323 1.085c-.332.448-.747 1.223 0 1.59s5.977.033 5.977.033.473-.644-1.063-.93z"/>
                                <path fill="#FF94C0" d="M6.832 20.946c1.021.734 6.476 1.28 6.476 1.28l.357-1.712-5.936-1.444s-.839-7.708-2.89-7.349c0 0-.721.065-.472 1.688.249 1.624 1.436 6.803 2.465 7.537z"/>
                                <path fill="#FFC2A4" d="M16.305 58.214c-1.561.081-3.288-.44-3.296-.612l-1.237-22.35-3.802.686 1.079 7.969s-.224 1.843-.166 3.458c.058 1.615 2.54 10.196 2.54 10.196s.166.62-.05 1.134c-.215.514-.431 1.362.382 1.541.814.18 5.812-1.37 5.812-1.37s.298-.734-1.262-.652z"/>
                                <path fill="#F71D66" d="M17.525 58.507c-.066-.098-.2-.187-.44-.244-.19-.041-.44-.066-.78-.05-.399.025-.806 0-1.196-.04.108.196 0 .473-.797.644-1.502.318-2.939-.13-2.939-.13-.215.514-.431 1.362.382 1.541.15.033.457.008.839-.057.066-.008.133-.024.199-.032.033-.009.066-.017.108-.017.075-.016.141-.032.216-.04.074-.017.15-.033.232-.05.075-.016.158-.032.241-.057.041-.008.083-.016.125-.032.041-.008.083-.016.124-.033.374-.09.755-.187 1.137-.293.083-.025.166-.05.25-.066.082-.024.165-.049.248-.065.042-.008.083-.024.125-.033.083-.024.158-.049.24-.065.075-.024.158-.04.233-.065.864-.245 1.511-.449 1.511-.449s.025-.073.017-.163c0-.016-.009-.04-.009-.057-.008-.024-.016-.04-.024-.065-.017-.033-.025-.057-.042-.082z"/>
                                <path fill="#FF94C0" d="M2.623 30.359L1.445 36.99s3.685 2.088 11.157-.628c0 0-.34-2.7-1.17-5.84-.59-2.243-8.809-.163-8.809-.163z"/>
                                <path fill="#FFEDF4" d="M8.983 15.35c1.02 2.668-.108 5.523-.025 6.395.083.873 3.843 9.976 3.843 9.976s-.58.71-5.504.791c-4.923.082-5.562-1.305-5.562-1.305-.025-.106 2.432-6.142 2.466-9.192.016-1.469-1.769-5.22-1.802-7.341-.025-2.121 2.208-3.695 2.208-3.695l4.376 4.372z"/>
                                <path fill="#FFC2A4" d="M11.315 22.602h1.329s1.154 1.599 2.29 1.819c1.138.22.632-1.191.632-1.191l-1.403-1.42-2.574-.489-.274 1.28z"/>
                                <path fill="#FF94C0" d="M8.958 21.745c-.009-.097 0-.228.016-.375l-2.3-.554s-.838-7.708-2.888-7.35c0 0-.366-.04-.117 1.591.25 1.631 1.154 6.631 2.184 7.365.49.351 2.034.523 3.503.604-.232-.652-.382-1.117-.398-1.28z"/>
                                <path fill="#FFEDF4" d="M5.994 21.81c1.021.735 6.475 1.281 6.475 1.281l.357-1.713-5.936-1.443s-.838-7.708-2.889-7.35c0 0-.722.066-.473 1.689.25 1.623 1.445 6.803 2.466 7.537z"/>
                                <path fill="#FF94C0" d="M3.994 12.554c.95-.167 1.7 1.244 2.293 3.699.194.806.357 1.67.489 2.534l.022.149c.03.197.056.383.079.557l.026.202.025.215 2.197.532c.02.004.033.022.032.042l-.001.007c-.005.02-.024.032-.043.03h-.008l-2.224-.539c-.017-.004-.03-.018-.032-.035l-.01-.082-.023-.196-.005-.037c-.032-.252-.071-.532-.117-.833-.132-.862-.294-1.723-.488-2.527l-.035-.143c-.575-2.318-1.3-3.646-2.162-3.495-.023.004-.044-.01-.048-.033-.004-.022.01-.043.033-.047zM4.742 11.428c.02-.003.039.008.046.026l.002.007.112.657 1.227.602c.013.007.022.02.023.036v.007l-.095.604.02.008.123.054.029.013c.155.072.335.166.54.283l.044.026c.636.37 1.37.887 2.188 1.577.018.015.02.04.005.057-.015.018-.041.02-.059.005-.815-.687-1.544-1.202-2.176-1.57-.221-.128-.414-.228-.578-.304l-.054-.025-.05-.022-.044-.018-.049-.02c-.016-.005-.027-.02-.027-.037v-.007l.095-.607-1.218-.598c-.01-.005-.016-.013-.02-.023l-.002-.007-.116-.677c-.004-.022.011-.043.034-.047zM7.115 29.347l2.498-1.737s.2 1.126-.63 1.664c-.822.538-1.868.073-1.868.073z"/>
                                <path fill="#F71D66" d="M6.899 59.592c-.042-.114-.15-.228-.366-.342-.174-.09-.415-.164-.747-.229-.39-.073-.78-.187-1.145-.318.058.22-.117.465-.93.44-1.536-.04-2.823-.815-2.823-.815-.332.448-.747 1.223 0 1.59.141.066.44.115.83.139.067.008.133.008.2.008.033 0 .074 0 .108.008.074 0 .15.008.224.008.074 0 .158 0 .232.009h.49c.382 0 .78-.009 1.179-.017.091 0 .174-.008.257-.008.083 0 .175-.008.258-.008.041 0 .083 0 .124-.008.083 0 .166-.008.25-.008.082 0 .157-.008.24-.008.897-.041 1.577-.082 1.577-.082s.042-.065.058-.155c0-.016.009-.04.009-.057 0-.025 0-.04-.009-.065 0-.033 0-.057-.016-.082z"/>
                            </g>
                            <path fill="#F71D66" d="M28.857 25.186H30.677V43.397H28.857z"/>
                            <path fill="#F71D66" d="M36.951 33.874L38.74 33.874 38.74 51.026 36.951 51.026z" transform="rotate(90 37.845 42.45)"/>
                            <path fill="#4E73FF" d="M27.25 23.134c.83 0 1.499.652 1.513 1.468V42.496c0 .187.151.342.339.351H47.03c1.152 0 2.19.705 2.605 1.763l.013.034 4.432 11.778-.852.313-4.433-11.777c-.27-.715-.961-1.198-1.732-1.211H29.119c-.689 0-1.251-.547-1.265-1.225V24.629c0-.325-.257-.586-.584-.596h-1.533v-.9h1.513z"/>
                            <ellipse cx="45.76" cy="56.992" fill="#FCAF3D" rx="2.86" ry="2.821"/>
                            <path fill="#425163" d="M29.247 34.933c-7.252 0-13.132 5.799-13.132 12.953 0 7.154 5.88 12.953 13.132 12.953 7.253 0 13.132-5.8 13.132-12.953 0-7.154-5.88-12.953-13.132-12.953zm0 1.31c6.52 0 11.804 5.213 11.804 11.643 0 6.43-5.285 11.643-11.804 11.643s-11.804-5.213-11.804-11.643c0-6.43 5.285-11.643 11.804-11.643zM45.89 53.657c-1.795 0-3.25 1.436-3.25 3.206 0 1.771 1.455 3.207 3.25 3.207s3.25-1.436 3.25-3.207c0-1.77-1.455-3.206-3.25-3.206zm0 .75c1.375 0 2.49 1.1 2.49 2.456 0 1.357-1.115 2.457-2.49 2.457-1.376 0-2.49-1.1-2.49-2.457 0-1.356 1.114-2.456 2.49-2.456z"/>
                            <path fill="#4E73FF" d="M38.797 32.111c2.421 0 4.604 1.41 5.572 3.585l.03.066 3.181 7.447v9.83c0 .92-.215 1.838-.625 2.663l-.028.057-1.013 2.002-.818-.398 1.013-2.002c.356-.698.548-1.477.558-2.26V43.39l-3.11-7.28c-.803-1.862-2.645-3.078-4.698-3.102H28.337v-.896h10.46z"/>
                            <path fill="#4E73FF" d="M29.247 35.959c-6.678 0-12.092 5.34-12.092 11.927s5.414 11.927 12.092 11.927c6.678 0 12.092-5.34 12.092-11.927s-5.414-11.927-12.092-11.927zm0 .893c6.178 0 11.187 4.94 11.187 11.034S35.425 58.92 29.247 58.92c-6.178 0-11.186-4.94-11.186-11.034s5.008-11.034 11.186-11.034z"/>
                            <path fill="#4E73FF" d="M29.994 36.215L29.994 59.3 28.597 59.3 28.597 36.215z"/>
                            <path fill="#4E73FF" d="M22.576 38.267L36.398 56.976 35.659 57.505 21.836 38.796z"/>
                            <path fill="#4E73FF" d="M18.218 43.91L40.559 51.013 40.276 51.862 17.936 44.759z"/>
                            <path fill="#4E73FF" d="M40.276 43.91L40.559 44.759 18.218 51.862 17.936 51.013z"/>
                            <path fill="#4E73FF" d="M35.659 38.267L36.398 38.796 22.576 57.505 21.836 56.976z"/>
                            <ellipse cx="29.117" cy="47.758" fill="#425163" rx="1.04" ry="1.026"/>
                            <ellipse cx="45.76" cy="56.992" fill="#425163" rx="1.04" ry="1.026"/>
                            <path fill="#425163" d="M59.054 53.95c.281-.107.599.028.71.302.108.269-.022.571-.29.686l-.019.007-7.226 2.779c-.281.108-.6-.027-.71-.302-.108-.268.021-.57.29-.685l.019-.008 7.226-2.778z"/>
                            <g fill="#F71D66">
                                <path d="M.948.41c-.51 0-.923.421-.923.94 0 .52.413.941.923.941s.923-.42.923-.94S1.457.41.948.41zm0 .086c.463 0 .839.383.839.855s-.376.855-.84.855c-.462 0-.838-.383-.838-.855S.485.496.948.496zM3.112.026c-.51 0-.923.42-.923.94s.413.94.923.94.923-.42.923-.94-.413-.94-.923-.94zm0 .085c.463 0 .839.383.839.855s-.376.855-.839.855c-.463 0-.839-.383-.839-.855s.376-.855.84-.855z" transform="translate(35.358 13.643)"/>
                            </g>
                            <path fill="#FFC2A4" d="M33.538 26.725v6.389c0 .458.185.899.522 1.217 1.203 1.152 4.057 3.93 4.191 4.323.169.49.632 1.47 1.052 1.715.421.245.59 2.002 1.137 2.002s.463-2.042 0-3.227-4.503-6.087-4.503-6.087l.252-6.332h-2.651z"/>
                            <path fill="#FCAF3D" d="M34.954 21.606s-1.305-.293-1.846 2.134c-.43 1.924-.61 4.1-.61 4.1l4.303.167s.816-5.983-1.847-6.401zM59.542 53.696c-.406-1.067-1.572-1.595-2.612-1.18-1.04.417-1.556 1.614-1.15 2.68l3.762-1.5z"/>
                        </g>
                    </g>
                </g>
            </g>
        </g>
    </g>
</svg>
