<svg xmlns="http://www.w3.org/2000/svg" xmlns:xlink="http://www.w3.org/1999/xlink" width="46" height="35" viewBox="0 0 46 35">
    <defs>
        <path id="jqhch0c61a" d="M15.9 5.4c-.258 1.315-1.126 2.375-2.577 3.151-2.09 1.117-5.388 1.667-9.8 1.632-1.2-.01-2.352-.076-3.424-.199l-.074.662c1.095.125 2.27.194 3.494.203l.395.002c7.687 0 11.936-1.79 12.63-5.32.415-2.108.971-3.335 1.364-3.994.422-.707.75-.924.75-.924L18.323.04c-.063.038-1.562.983-2.423 5.36"/>
        <path id="mc2edsr5nd" d="M.004.676C.19.754.384.83.578.902L.803.276C.616.207.432.135.254.06l-.25.616z"/>
        <path id="n2bvliujtg" d="M.011.61c.012.008 1.19.801 1.986 4.298l.64-.15C2.277 3.171 1.795 1.905 1.207.996.75.292.39.064.35.04L.01.61z"/>
        <path id="4w2xdrgmaj" d="M20.328.022L18.42.026 16.51.022 16.18.02v.012C7.636.06 6.327.086 6.077.11V.108C2.523.513.042 2.238.042 4.3c0 2.063 2.48 3.787 6.033 4.193V8.49c.251.024 1.56.05 10.104.077v.012h.33l1.908-.005.726.002.001-.666-.727-.002-1.58.004v-.009h-.328c-8.674-.027-10.136-.057-10.334-.07l-.026-.002C2.992 7.472.7 5.986.7 4.3.7 2.615 2.992 1.13 6.15.769l.027-.003C6.375.754 7.837.724 16.51.698l.327-.001V.688l1.583.004L20 .688v.009h.328c8.674.027 10.136.057 10.333.07l.027.002c3.158.361 5.45 1.846 5.45 3.532 0 1.685-2.292 3.17-5.45 3.53l-.026.004c-.06.003-.279.011-1.061.02l.007.666c.862-.01 1.08-.017 1.165-.029 3.546-.408 6.022-2.13 6.022-4.191 0-2.063-2.481-3.788-6.034-4.193V.11c-.25-.024-1.559-.05-10.104-.077V.02h-.329z"/>
        <path id="07fv9uz3nm" d="M15.637.007L14.022.004l-.329.005V.01c-7.271.015-8.3.03-8.482.041C2.643.235.05 1.048.05 2.447c0 1.4 2.592 2.213 5.16 2.399v-.001c.183.011 1.211.026 8.482.04v.007l1.943-.003.838.001v-.666l-.838-.001-1.286.002v-.004l-.328-.001c-5.273-.01-8.445-.024-8.742-.037l-.023-.002c-1.318-.095-2.513-.344-3.363-.702C1.152 3.168.709 2.782.709 2.448c0-.334.443-.72 1.185-1.031.85-.358 2.045-.607 3.363-.703L5.28.713C5.577.7 8.75.686 14.022.676l.271-.005 1.344.002L16.922.67v.004h.328c5.273.011 8.446.025 8.743.038l.022.001c1.319.096 2.513.345 3.364.703.742.311 1.185.697 1.185 1.031 0 .659-1.612 1.48-4.31 1.715l.056.664c1.33-.116 2.537-.388 3.4-.766 1.25-.546 1.511-1.178 1.511-1.613 0-1.399-2.591-2.212-5.159-2.398v.001C25.879.04 24.851.025 17.58.011V.003l-1.943.003zm10.35.718l.011.002-.011-.002zM5.32.725L5.31.727 5.32.725z"/>
        <path id="4ef6odizao" d="M0.059 0.024L11.73 0.024 11.73 6.004 0.059 6.004z"/>
        <path id="1wwbvvwrpr" d="M0.021 0.009L11.336 0.009 11.336 5.548 0.021 5.548z"/>
        <path id="sohld4rgvu" d="M3.366.005V.1c0 .497.202.98.553 1.325l.09.09c.5.491.786 1.178.786 1.884v5.056c-.181.122-.906.321-2.052.321-1.145 0-1.87-.2-2.051-.32V3.398c0-.706.286-1.393.786-1.885l.09-.089C1.918 1.08 2.12.597 2.12.1V.005h-.657V.1c0 .318-.129.627-.353.848l-.09.088C.394 1.653.035 2.514.035 3.4V8.53c0 .846 2.073.912 2.708.912.636 0 2.71-.066 2.71-.912V3.4c0-.885-.36-1.746-.986-2.363l-.09-.088C4.152.727 4.024.418 4.024.1V.005h-.658z"/>
        <path id="thgi4cc2vx" d="M0.05 0.011L3.333 0.011 3.333 4.431 0.05 4.431z"/>
        <path id="0wdlfqo6iz" d="M.936.064C.448.064.05.466.05.96v.678c0 .495.397.897.885.897h1.512c.488 0 .885-.402.885-.897V.96c0-.495-.397-.897-.885-.897H.936zM.708 1.639V.96C.708.833.81.729.936.729h1.512c.126 0 .228.104.228.232v.678c0 .127-.102.231-.228.231H.936c-.126 0-.228-.104-.228-.231z"/>
        <path id="pyto4g4exC" d="M3.517.622c.776.32 1.277 1.077 1.277 1.926v2.644c-.181.121-.906.32-2.052.32-1.145 0-1.87-.199-2.051-.32V2.548c0-.838.492-1.59 1.253-1.916L1.688.018C.683.45.033 1.442.033 2.548v2.719c0 .846 2.074.912 2.71.912.635 0 2.708-.066 2.708-.912v-2.72C5.45 1.428 4.79.43 3.766.006l-.249.617z"/>
        <path id="gdxr3opryF" d="M0.035 0.021L1.507 0.021 1.507 1.415 0.035 1.415z"/>
        <linearGradient id="kfqtth6pgb" x1="0%" x2="100.002%" y1="50%" y2="50%">
            <stop offset="0%" stop-color="#6989FF"/>
            <stop offset="100%" stop-color="#FFF"/>
        </linearGradient>
        <linearGradient id="7hf8sv0f5e" x1=".004%" x2="100.004%" y1="50.001%" y2="50.001%">
            <stop offset="0%" stop-color="#6989FF"/>
            <stop offset="100%" stop-color="#FFF"/>
        </linearGradient>
        <linearGradient id="sn0i6k1qjh" x1=".001%" x2="100.001%" y1="49.999%" y2="49.999%">
            <stop offset="0%" stop-color="#6989FF"/>
            <stop offset="100%" stop-color="#FFF"/>
        </linearGradient>
        <linearGradient id="takshg9ysk" x1="35.461%" x2="64.539%" y1="44.056%" y2="55.944%">
            <stop offset="0%" stop-color="#6989FF"/>
            <stop offset="100%" stop-color="#FFF"/>
        </linearGradient>
        <linearGradient id="b3v0n6c2gp" x1="2.259%" x2="97.742%" y1="62.536%" y2="37.465%">
            <stop offset="0%" stop-color="#FFB405"/>
            <stop offset="100%" stop-color="#FF0069"/>
        </linearGradient>
        <linearGradient id="zfcx3f9m8s" x1="2.259%" x2="97.742%" y1="61.442%" y2="38.558%">
            <stop offset="0%" stop-color="#FFB405"/>
            <stop offset="100%" stop-color="#FF0069"/>
        </linearGradient>
        <linearGradient id="6jvvvy0ibv" x1="50%" x2="50%" y1="100%" y2="0%">
            <stop offset="0%" stop-color="#285BFF"/>
            <stop offset="100%" stop-color="#D4DFFF"/>
        </linearGradient>
        <linearGradient id="z3bjk6257A" x1="50%" x2="50%" y1="100%" y2="-.002%">
            <stop offset="0%" stop-color="#285BFF"/>
            <stop offset="100%" stop-color="#D4DFFF"/>
        </linearGradient>
        <linearGradient id="f8xcqjhdnD" x1=".001%" x2="100%" y1="50%" y2="50%">
            <stop offset="0%" stop-color="#285BFF"/>
            <stop offset="100%" stop-color="#D4DFFF"/>
        </linearGradient>
    </defs>
    <g fill="none" fill-rule="evenodd">
        <g>
            <g>
                <g>
                    <g>
                        <g opacity=".116">
                            <path d="M0 0H46V34.5H0z" transform="translate(-357 -304) translate(335 277) translate(16 16) translate(6 11)"/>
                        </g>
                        <g>
                            <g fill="#FA1D5F" opacity=".428">
                                <path d="M2.662 5.343c-1.076 0-1.95.887-1.95 1.977s.874 1.977 1.95 1.977 1.95-.887 1.95-1.977-.874-1.977-1.95-1.977m0 4.62C1.224 9.963.054 8.777.054 7.32c0-1.457 1.17-2.643 2.608-2.643C4.1 4.677 5.27 5.863 5.27 7.32c0 1.457-1.17 2.643-2.608 2.643M11.837.669c-.6 0-1.088.494-1.088 1.102 0 .608.488 1.103 1.088 1.103.6 0 1.088-.495 1.088-1.103S12.437.67 11.837.67m0 2.87c-.962 0-1.745-.793-1.745-1.768S10.875.003 11.837.003c.962 0 1.745.793 1.745 1.768S12.8 3.54 11.837 3.54M11.062 12.763l-.657-.03c.085-1.893 1.616-3.375 3.487-3.375 1.868 0 3.4 1.48 3.486 3.37l-.656.03c-.07-1.533-1.314-2.734-2.83-2.734-1.518 0-2.761 1.203-2.83 2.739" transform="translate(-357 -304) translate(335 277) translate(16 16) translate(6 11) translate(4.6 .932) translate(7.689 .057)"/>
                            </g>
                            <g transform="translate(-357 -304) translate(335 277) translate(16 16) translate(6 11) translate(4.6 .932) translate(15.049 19.572)">
                                <mask id="a6xgtggebc" fill="#fff">
                                    <use xlink:href="#jqhch0c61a"/>
                                </mask>
                                <path fill="url(#kfqtth6pgb)" d="M15.9 5.4c-.258 1.315-1.126 2.375-2.577 3.151-2.09 1.117-5.388 1.667-9.8 1.632-1.2-.01-2.352-.076-3.424-.199l-.074.662c1.095.125 2.27.194 3.494.203l.395.002c7.687 0 11.936-1.79 12.63-5.32.415-2.108.971-3.335 1.364-3.994.422-.707.75-.924.75-.924L18.323.04c-.063.038-1.562.983-2.423 5.36" mask="url(#a6xgtggebc)"/>
                            </g>
                            <g transform="translate(-357 -304) translate(335 277) translate(16 16) translate(6 11) translate(4.6 .932) translate(9.66 28.23)">
                                <mask id="ynzjowd5kf" fill="#fff">
                                    <use xlink:href="#mc2edsr5nd"/>
                                </mask>
                                <path fill="url(#7hf8sv0f5e)" d="M.004.676C.19.754.384.83.578.902L.803.276C.616.207.432.135.254.06l-.25.616z" mask="url(#ynzjowd5kf)"/>
                            </g>
                            <g transform="translate(-357 -304) translate(335 277) translate(16 16) translate(6 11) translate(4.6 .932) translate(3.417 19.572)">
                                <mask id="35g54j50ci" fill="#fff">
                                    <use xlink:href="#n2bvliujtg"/>
                                </mask>
                                <path fill="url(#sn0i6k1qjh)" d="M.011.61c.012.008 1.19.801 1.986 4.298l.64-.15C2.277 3.171 1.795 1.905 1.207.996.75.292.39.064.35.04L.01.61z" mask="url(#35g54j50ci)"/>
                            </g>
                            <g transform="translate(-357 -304) translate(335 277) translate(16 16) translate(6 11) translate(4.6 .932) translate(0 12.445)">
                                <mask id="6gmi7jctfl" fill="#fff">
                                    <use xlink:href="#4w2xdrgmaj"/>
                                </mask>
                                <path fill="url(#takshg9ysk)" d="M20.328.022L18.42.026 16.51.022 16.18.02v.012C7.636.06 6.327.086 6.077.11V.108C2.523.513.042 2.238.042 4.3c0 2.063 2.48 3.787 6.033 4.193V8.49c.251.024 1.56.05 10.104.077v.012h.33l1.908-.005.726.002.001-.666-.727-.002-1.58.004v-.009h-.328c-8.674-.027-10.136-.057-10.334-.07l-.026-.002C2.992 7.472.7 5.986.7 4.3.7 2.615 2.992 1.13 6.15.769l.027-.003C6.375.754 7.837.724 16.51.698l.327-.001V.688l1.583.004L20 .688v.009h.328c8.674.027 10.136.057 10.333.07l.027.002c3.158.361 5.45 1.846 5.45 3.532 0 1.685-2.292 3.17-5.45 3.53l-.026.004c-.06.003-.279.011-1.061.02l.007.666c.862-.01 1.08-.017 1.165-.029 3.546-.408 6.022-2.13 6.022-4.191 0-2.063-2.481-3.788-6.034-4.193V.11c-.25-.024-1.559-.05-10.104-.077V.02h-.329z" mask="url(#6gmi7jctfl)"/>
                            </g>
                            <g transform="translate(-357 -304) translate(335 277) translate(16 16) translate(6 11) translate(4.6 .932) translate(3.22 13.51)">
                                <mask id="lbxm21jqfn" fill="#fff">
                                    <use xlink:href="#07fv9uz3nm"/>
                                </mask>
                                <path d="M15.637.007L14.022.004l-.329.005V.01c-7.271.015-8.3.03-8.482.041C2.643.235.05 1.048.05 2.447c0 1.4 2.592 2.213 5.16 2.399v-.001c.183.011 1.211.026 8.482.04v.007l1.943-.003.838.001v-.666l-.838-.001-1.286.002v-.004l-.328-.001c-5.273-.01-8.445-.024-8.742-.037l-.023-.002c-1.318-.095-2.513-.344-3.363-.702C1.152 3.168.709 2.782.709 2.448c0-.334.443-.72 1.185-1.031.85-.358 2.045-.607 3.363-.703L5.28.713C5.577.7 8.75.686 14.022.676l.271-.005 1.344.002L16.922.67v.004h.328c5.273.011 8.446.025 8.743.038l.022.001c1.319.096 2.513.345 3.364.703.742.311 1.185.697 1.185 1.031 0 .659-1.612 1.48-4.31 1.715l.056.664c1.33-.116 2.537-.388 3.4-.766 1.25-.546 1.511-1.178 1.511-1.613 0-1.399-2.591-2.212-5.159-2.398v.001C25.879.04 24.851.025 17.58.011V.003l-1.943.003zm10.35.718l.011.002-.011-.002zM5.32.725L5.31.727 5.32.725z" mask="url(#lbxm21jqfn)"/>
                            </g>
                            <g>
                                <path fill="#F71D66" d="M.762 7.277l10.508 3.927V1.597c0-.504-.404-.914-.901-.914H2.84c-.425 0-.797.307-.883.729L.762 7.277zm11.165 4.883L.003 7.704l1.312-6.427c.149-.73.79-1.26 1.526-1.26h7.528c.86 0 1.558.709 1.558 1.58V12.16z" transform="translate(-357 -304) translate(335 277) translate(16 16) translate(6 11) translate(4.6 .932) translate(18.006 16.908)"/>
                                <path fill="#F71D66" d="M.758 7.981c.023.26.15.498.354.66l.08.063v-.56L.758 7.98zm.492 1.453c-.13 0-.26-.044-.368-.13l-.176-.14C.334 8.869.112 8.424.098 7.944L.07 7.014l1.779.665v1.149c0 .234-.13.442-.337.545-.084.041-.173.061-.262.061zM2.77 8.732c.023.26.15.498.354.66l.08.063v-.56l-.434-.163zm.492 1.453c-.13 0-.26-.044-.368-.13l-.176-.14c-.372-.296-.594-.741-.608-1.221l-.028-.929 1.779.665v1.149c0 .234-.13.442-.337.545-.084.04-.173.061-.262.061zM4.802 9.487c.023.26.15.497.354.66l.08.063v-.561l-.434-.162zm.492 1.453c-.13 0-.26-.044-.368-.13l-.176-.14c-.372-.296-.594-.742-.608-1.222l-.028-.928 1.779.664v1.15c0 .233-.129.442-.336.544-.084.041-.174.062-.263.062zM6.834 10.241c.023.26.15.498.354.66l.08.063v-.56l-.434-.163zm.492 1.453c-.13 0-.26-.044-.368-.13l-.176-.14c-.372-.296-.594-.741-.608-1.221l-.028-.929 1.779.665v1.149c0 .234-.129.442-.336.545-.084.041-.174.061-.263.061zM8.866 10.996c.024.26.15.497.354.66l.08.063v-.561l-.434-.162zm.492 1.453c-.13 0-.26-.044-.368-.13l-.175-.14c-.373-.297-.595-.742-.609-1.222l-.027-.928 1.778.664v1.15c0 .233-.129.442-.336.544-.084.041-.174.062-.263.062zM10.836 11.75c.024.26.15.498.355.66l.08.063v-.56l-.435-.163zm.493 1.453c-.131 0-.26-.044-.369-.13l-.175-.14c-.373-.296-.595-.741-.609-1.221l-.027-.929 1.778.665v1.149c0 .234-.129.442-.336.545-.084.04-.173.061-.262.061z" transform="translate(-357 -304) translate(335 277) translate(16 16) translate(6 11) translate(4.6 .932) translate(18.006 16.908)"/>
                                <g transform="translate(-357 -304) translate(335 277) translate(16 16) translate(6 11) translate(4.6 .932) translate(18.006 16.908) translate(.197 4.662)">
                                    <mask id="n27x58iqwq" fill="#fff">
                                        <use xlink:href="#4ef6odizao"/>
                                    </mask>
                                    <path fill="url(#b3v0n6c2gp)" d="M.819 1.368l10.254 3.693v-.494L.913.907l-.094.461zM11.73 6.004L.06 1.801.421.024 11.73 4.097v1.907z" mask="url(#n27x58iqwq)" opacity=".444"/>
                                </g>
                                <g transform="translate(-357 -304) translate(335 277) translate(16 16) translate(6 11) translate(4.6 .932) translate(18.006 16.908) translate(.591 2.93)">
                                    <mask id="jnsxwy6zlt" fill="#fff">
                                        <use xlink:href="#1wwbvvwrpr"/>
                                    </mask>
                                    <path fill="url(#zfcx3f9m8s)" d="M.784 1.34l9.895 3.288v-1.59L.892.808l-.108.531zm10.552 4.208L.02 1.787.384.009l10.952 2.496v3.043z" mask="url(#jnsxwy6zlt)" opacity=".444"/>
                                </g>
                            </g>
                            <g transform="translate(-357 -304) translate(335 277) translate(16 16) translate(6 11) translate(4.6 .932) translate(4.666 22.902)">
                                <mask id="7tq6dfq8rw" fill="#fff">
                                    <use xlink:href="#sohld4rgvu"/>
                                </mask>
                                <path fill="url(#6jvvvy0ibv)" d="M3.366.005V.1c0 .497.202.98.553 1.325l.09.09c.5.491.786 1.178.786 1.884v5.056c-.181.122-.906.321-2.052.321-1.145 0-1.87-.2-2.051-.32V3.398c0-.706.286-1.393.786-1.885l.09-.089C1.918 1.08 2.12.597 2.12.1V.005h-.657V.1c0 .318-.129.627-.353.848l-.09.088C.394 1.653.035 2.514.035 3.4V8.53c0 .846 2.073.912 2.708.912.636 0 2.71-.066 2.71-.912V3.4c0-.885-.36-1.746-.986-2.363l-.09-.088C4.152.727 4.024.418 4.024.1V.005h-.658z" mask="url(#7tq6dfq8rw)"/>
                            </g>
                            <g transform="translate(-357 -304) translate(335 277) translate(16 16) translate(6 11) translate(4.6 .932) translate(5.717 25.5)">
                                <mask id="cv73tejxsy" fill="#fff">
                                    <use xlink:href="#thgi4cc2vx"/>
                                </mask>
                                <path fill="#F71D66" d="M1.692.677c-.534 0-.984.707-.984 1.544 0 .837.45 1.544.984 1.544.533 0 .984-.707.984-1.544 0-.837-.45-1.544-.984-1.544m0 3.754c-.92 0-1.642-.97-1.642-2.21C.05.982.771.011 1.692.011c.92 0 1.641.971 1.641 2.21 0 1.24-.72 2.21-1.641 2.21" mask="url(#cv73tejxsy)"/>
                            </g>
                            <g transform="translate(-357 -304) translate(335 277) translate(16 16) translate(6 11) translate(4.6 .932) translate(5.717 20.704)">
                                <mask id="2rsl98lbiB" fill="#fff">
                                    <use xlink:href="#0wdlfqo6iz"/>
                                </mask>
                                <path fill="url(#z3bjk6257A)" d="M.936.064C.448.064.05.466.05.96v.678c0 .495.397.897.885.897h1.512c.488 0 .885-.402.885-.897V.96c0-.495-.397-.897-.885-.897H.936zM.708 1.639V.96C.708.833.81.729.936.729h1.512c.126 0 .228.104.228.232v.678c0 .127-.102.231-.228.231H.936c-.126 0-.228-.104-.228-.231z" mask="url(#2rsl98lbiB)"/>
                            </g>
                            <g transform="translate(-357 -304) translate(335 277) translate(16 16) translate(6 11) translate(4.6 .932) translate(9.989 26.165)">
                                <mask id="rwty7f07uE" fill="#fff">
                                    <use xlink:href="#pyto4g4exC"/>
                                </mask>
                                <path fill="url(#f8xcqjhdnD)" d="M3.517.622c.776.32 1.277 1.077 1.277 1.926v2.644c-.181.121-.906.32-2.052.32-1.145 0-1.87-.199-2.051-.32V2.548c0-.838.492-1.59 1.253-1.916L1.688.018C.683.45.033 1.442.033 2.548v2.719c0 .846 2.074.912 2.71.912.635 0 2.708-.066 2.708-.912v-2.72C5.45 1.428 4.79.43 3.766.006l-.249.617z" mask="url(#rwty7f07uE)"/>
                            </g>
                            <g>
                                <g transform="translate(-357 -304) translate(335 277) translate(16 16) translate(6 11) translate(4.6 .932) translate(10.711 23.435) translate(1.249 .932)">
                                    <mask id="k3nyul8nqG" fill="#fff">
                                        <use xlink:href="#gdxr3opryF"/>
                                    </mask>
                                    <path fill="#F71D66" d="M.692.781H.85V.688H.692V.78zm-.657.634h1.472V.02H.035v1.394z" mask="url(#k3nyul8nqG)"/>
                                </g>
                                <path fill="#4E73FF" d="M1.482 2.347c-.116 0-.21.096-.21.213 0 .118.094.214.21.214h1.075c.116 0 .21-.096.21-.213 0-.118-.094-.214-.21-.214H1.482zM2.557 3.44H1.482c-.478 0-.868-.395-.868-.88 0-.484.39-.879.868-.879h1.075c.478 0 .867.395.867.88 0 .484-.389.879-.867.879zM1.55.953h.885V.71h-1.06c.073.069.133.151.176.244m1.06.666H.967v-.333c0-.067-.055-.122-.121-.122H.482C.239 1.164.04.964.04.717V.49c0-.246.198-.446.44-.446h2.13c.266 0 .481.219.481.487v.602c0 .268-.215.487-.48.487" transform="translate(-357 -304) translate(335 277) translate(16 16) translate(6 11) translate(4.6 .932) translate(10.711 23.435)"/>
                            </g>
                        </g>
                    </g>
                </g>
            </g>
        </g>
    </g>
</svg>
