<svg xmlns="http://www.w3.org/2000/svg" width="61" height="64" viewBox="0 0 61 64">
    <g fill="none" fill-rule="evenodd">
        <g fill-rule="nonzero">
            <g>
                <g>
                    <g>
                        <g transform="translate(-93 -511) translate(43 407) translate(16 77) translate(16 16) translate(18.33 11.457)">
                            <ellipse cx="29.507" cy="61.527" fill="#DAD6E5" rx="28.734" ry="1"/>
                            <g>
                                <g transform="translate(11.805) translate(19.594)">
                                    <path fill="#4E73FF" d="M3.789 30.434s-.062 13.03.053 15.87c.114 2.84.08 11.927.08 11.927l3.02.078.989-12.61.936-9.823.874-.123 2.075 10.893 2.04 11.585 2.411.122-.75-12.049-.468-15.51-11.26-.36z"/>
                                    <path fill="#FFC2A4" d="M8.275 7.729H10.545V12.733H8.275z"/>
                                    <path fill="#FCB392" d="M8.275 9.473s.23.683 1.14.762c.909.08 1.35-1.165 1.35-1.165l-2.49.403z"/>
                                    <path fill="#FFC2A4" d="M12.576 3.68c-.256-1.34-1.713-2.488-3.17-2.488-1.458 0-2.906 1.148-3.171 2.488-.521 2.673 1.325 6.292 3.17 6.152 1.846.14 3.692-3.47 3.17-6.152z"/>
                                    <path fill="#2D4FCD" d="M6.606 2.12s-1.042.597-.786 1.534c.256.938.37 1.464.37 1.464s1.105-1.253.955-1.998c-.16-.745-.54-1-.54-1z"/>
                                    <path fill="#2D4FCD" d="M6.606 2.12S6.386.772 7.153.43C7.931.087 9.76-.299 11.11.893s2.146 1.691 2.146 1.691-.38 1.315-1.484.719-3.974-1.078-4.636-.193l-.53-.99z"/>
                                    <path fill="#2D4FCD" d="M11.772 3.12s-.256.56.186.99c.441.43.627 1.402.503 1.621 0 0 .804-.876.035-2.252-.768-1.376-.724-.36-.724-.36z"/>
                                    <ellipse cx="6.331" cy="5.927" fill="#FFC2A4" rx="1" ry="1.201" transform="rotate(-10.614 6.331 5.927)"/>
                                    <ellipse cx="12.36" cy="5.927" fill="#FFC2A4" rx="1.201" ry="1" transform="rotate(-79.386 12.36 5.927)"/>
                                    <g fill="#F71D66">
                                        <path d="M1.29.246C.714.246.248.709.248 1.28S.714 2.314 1.29 2.314c.575 0 1.042-.463 1.042-1.034S1.865.246 1.29.246zm0 .088c.527 0 .954.423.954.946 0 .523-.427.946-.954.946-.527 0-.954-.423-.954-.946 0-.523.427-.946.954-.946zM3.763.263c-.576 0-1.043.463-1.043 1.034 0 .572.467 1.035 1.043 1.035.575 0 1.042-.463 1.042-1.035 0-.57-.467-1.034-1.042-1.034zm0 .088c.526 0 .953.424.953.946 0 .523-.427.947-.953.947-.527 0-.954-.424-.954-.947 0-.522.427-.946.954-.946z" transform="translate(6.88 4.11)"/>
                                    </g>
                                    <path fill="#4E73FF" d="M7.78 11.208s1.21.789 1.528 1.682c0 0 1.184-1.542 1.925-1.682.742-.14 2.244 19.673 2.244 19.673s-3.26 1.499-6.633 0c-2.746-1.218.936-19.673.936-19.673z"/>
                                    <path fill="#F4F3F7" d="M7.719 11.699s-3.33.964-3.816 1.446c-.485.482.937 5.03.848 6.239-.08 1.21-2.358 20.216-2.358 20.216l5.679.99s.971-13.81 1.05-14.45C9.389 24.256 7.72 11.7 7.72 11.7z"/>
                                    <path fill="#FFC2A4" d="M3.727 29.97s.159.263.159.403 2.19 0 2.19 0-.565-.5-.627-1.227c-.062-.727-1.722.824-1.722.824z"/>
                                    <path fill="#F4F3F7" d="M3.912 13.145s-.9 0-1.501 2.05c-.6 2.05-1.943 7.247-1.943 7.764 0 .526 3.056 7.291 3.056 7.291s2.243-.894 2.27-1.332c.026-.447-2.853-6.476-2.853-6.476l1.943-5.275-.972-4.022z"/>
                                    <path fill="#FFF" d="M8.928 22.083c-.423-1.691-.67-11.655-.67-11.655s-1.89 1.691-2.27 3.383c0 0 .688.84 1.227 1.55l-.998.658 2.711 6.064z"/>
                                    <path fill="#FF94C0" d="M8.299 10.399c.016.018.015.045-.003.062l-.068.062-.032.03c-.08.076-.168.163-.263.261-.273.28-.545.59-.8.918-.542.7-.926 1.392-1.082 2.038l-.007.03.182.224.095.117c.187.232.374.467.551.693l.162.208.139.18.086.113c.014.018.011.043-.004.058l-.007.005-.967.637 2.688 6.039c.009.02.002.042-.016.054l-.007.004c-.02.008-.042.001-.054-.016l-.004-.007-2.702-6.072c-.008-.018-.004-.037.01-.05l.006-.005.959-.631-.104-.135-.093-.12L6.89 15c-.145-.186-.297-.379-.452-.572l-.25-.311-.226-.279c-.008-.01-.012-.024-.009-.037.152-.675.547-1.394 1.11-2.122.257-.332.532-.643.806-.926l.071-.072.133-.132.079-.075.085-.078c.018-.017.046-.015.062.003z"/>
                                    <path fill="#F4F3F7" d="M11.092 11.699s3.33.964 3.815 1.446c.486.482-.936 5.03-.848 6.239.08 1.21 2.358 20.216 2.358 20.216l-5.678.99s-.972-13.81-1.051-14.45C9.432 24.256 11.092 11.7 11.092 11.7z"/>
                                    <path fill="#FFC2A4" d="M15.093 29.97s-.16.263-.16.403-2.19 0-2.19 0 .566-.5.628-1.227c.053-.727 1.722.824 1.722.824z"/>
                                    <path fill="#F4F3F7" d="M14.907 13.145s.901 0 1.502 2.05c.6 2.05 1.943 7.247 1.943 7.764 0 .526-3.056 7.291-3.056 7.291s-2.243-.894-2.27-1.332c-.026-.447 2.853-6.476 2.853-6.476l-1.943-5.275.971-4.022z"/>
                                    <path fill="#FFF" d="M9.882 22.083c.424-1.691.671-11.655.671-11.655s1.89 1.691 2.27 3.383c0 0-.689.84-1.227 1.55l.997.658-2.71 6.064z"/>
                                    <path fill="#FF94C0" d="M10.52 10.399c.017-.018.045-.02.063-.003l.054.05.047.044.062.06c.064.061.132.13.204.203.275.283.55.594.806.926.564.728.959 1.447 1.11 2.122.003.013 0 .027-.009.037l-.135.167-.155.191-.186.232-.364.46-.162.208-.093.12-.103.135.959.631c.016.01.023.03.018.047l-.002.008L9.923 22.1c-.01.022-.036.032-.059.022-.02-.009-.03-.03-.025-.05l.003-.008 2.696-6.03-.967-.637c-.019-.012-.025-.036-.015-.056l.004-.007.087-.113.091-.119.121-.156c.175-.224.36-.457.546-.69l.248-.307.122-.15-.007-.03c-.152-.63-.52-1.302-1.04-1.984l-.042-.054c-.254-.329-.527-.638-.8-.918-.083-.086-.161-.163-.233-.232l-.062-.059-.067-.062c-.018-.017-.02-.044-.003-.062z"/>
                                    <path fill="#4E73FF" d="M4.266 58.09s-.645.614-2.297 1.175c-1.651.57-2.154.7-1.872 1.49l6.818-.07s.821-.72-.292-2.525c-1.103-1.805-2.357-.07-2.357-.07zM17.495 60.588l-1.14-1.875-.335-.824.141-.35-.397-2.113-2.022.28v1.832l.317.473-.317.561-.76 2.016s-.097.517.848.753c.971.237 4.221.176 3.665-.753z"/>
                                    <path fill="#FF94C0" d="M6.535 30.837c.025 0 .044.292.044.653 0 .32-.015.586-.036.641l-.008.011H3.762c-.024 0-.044-.292-.044-.652 0-.32.016-.587.036-.642l.008-.01h2.773zM14.863 30.837c.025 0 .044.292.044.653 0 .32-.015.586-.036.641l-.008.011H12.09c-.024 0-.044-.292-.044-.652 0-.32.016-.587.036-.642l.008-.01h2.773z"/>
                                </g>
                                <g transform="translate(11.805) translate(0 3.045)">
                                    <path fill="#4E73FF" d="M7.405 1.143S9.14.41 10.212 3.622C11.284 6.834 8.53 8.274 8.53 8.274L6.75 9.347l-.461-6.964 1.116-1.24zM4.623 7.4S3.472 7.21 3.135 8.685c-.336 1.475.54 1.99-1.036 2.95-1.585.96 0 3.29 0 3.29s-.46-1.955 1.338-1.92c1.798.035 3.162-2.872 2.613-4.128C5.5 7.619 4.623 7.4 4.623 7.4z"/>
                                    <path fill="#4E73FF" d="M5.952 1.143s-1.7-.811-2.772 2.4c-1.072 3.212 2.4 5.63 2.4 5.63l1.019.183.46-6.965-1.107-1.248z"/>
                                    <path fill="#FFC2A4" d="M8.21 41.158s-.247 1.65-.469 3.22c-.221 1.571.806 10.683.806 10.683s-.894 1.65-.54 1.998c.585.568 4.588.192 4.588.192s1.24-.427-.221-.89c-1.4-.445-2.312-1.292-2.294-1.457l.868-13.563.38-7.959-3.764.026.647 7.75"/>
                                    <path fill="#F71D66" d="M13.959 57.05c-.044-.113-.142-.226-.354-.34-.169-.087-.399-.166-.727-.235-.38-.079-.761-.236-1.116-.367.054.218-.124.489-.92.454-1.506-.061-2.64-.847-2.64-.847-.337.437-.62 1.144-.142 1.562.115.096.425.114.815.149.062.009.133.009.195.017.035 0 .07 0 .106.009.071 0 .142.009.222.009.08 0 .15.008.23.008.08 0 .16.01.239.01h.248c.372.008.77.008 1.151 0h.257c.089 0 .169 0 .257-.01h.124c.08 0 .16 0 .24-.008.079 0 .159 0 .238-.009.886-.026 1.55-.052 1.55-.052s.045-.061.062-.157c0-.018.01-.035.01-.062 0-.017 0-.043-.01-.07-.017-.017-.026-.034-.035-.06z"/>
                                    <path fill="#FFC2A4" d="M5.583 7.359L7.779 7.359 7.779 12.159 5.583 12.159z" transform="rotate(-180 6.68 9.759)"/>
                                    <path fill="#FCB392" d="M7.777 9.024s-.222.655-1.099.724c-.868.07-1.302-1.117-1.302-1.117l2.4.393z"/>
                                    <path fill="#FFC2A4" d="M3.614 3.473c.248-1.282 1.656-2.382 3.064-2.382 1.409 0 2.808 1.1 3.065 2.382.505 2.566-1.275 6.031-3.065 5.9-1.78.131-3.56-3.334-3.064-5.9zM2.56 34.272l.354 5.935s-.841 2.889-.735 5.105c.106 2.217.496 8.213.496 8.213s-.018.419.035.733c.053.314-.505 1.824-.505 1.824l1.178.506 1.302-.297-.434-2.016s1.02-7.636 1.116-8.85c.133-1.684-.053-5.087-.053-5.087l.984-6.074H2.56v.008z"/>
                                    <circle cx="3.621" cy="5.396" r="1" fill="#FFC2A4" transform="rotate(-10.614 3.621 5.396)"/>
                                    <circle cx="9.649" cy="5.39" r="1" fill="#FFC2A4" transform="rotate(-79.386 9.65 5.39)"/>
                                    <path fill="#FF94C0" d="M8.255 10.691s-.018.009-.044.026c-.886.602-2.037.629-2.976.096-.116-.06-.222-.105-.32-.13-.38-.07-.31 6.911-1.133 13.562-.292 2.356-1.7 4.468-1.887 6.484-.292 3.16.036 5.612.036 5.612s5.669.436 9.23.165c.743-.052.743-2.888.274-7.444-.169-1.658-1.311-3.447-1.603-5.236C8.76 17.306 8.255 10.69 8.255 10.69z"/>
                                    <path fill="#F4F3F7" d="M8.45 11.119s2.25.419 2.719.881c.47.463-1.346 7.829-.868 10.752.337 2.034.824 1.623 1.612 5.254.903 4.19.035 7.287.035 7.287H7.546s-.398-9.704-.478-10.315c-.23-1.816 1.382-13.86 1.382-13.86zM5.049 11.162s-2.25.42-2.72.882c-.469.462 1.533 7.872.984 10.49-.514 2.47-.806 1.501-1.728 5.507-.965 4.172-.115 6.711-.115 6.711l4.367.533s.505-9.662.585-10.272c.239-1.807-1.373-13.85-1.373-13.85z"/>
                                    <path fill="#FFF" d="M6.218 21.129c-.408-1.623-.647-11.18-.647-11.18s-1.824 1.623-2.196 3.247c0 0 .664.811 1.186 1.483l-.956.629 2.613 5.82z"/>
                                    <path fill="#F71D66" d="M4.677 56.117c-.089.07-.213.13-.372.183-.532.166-1.639.2-2.144-.21l-.266.865c-.053.986 1.701 1.012 2.41.785.708-.227.637-.724.637-.724l-.265-.9z"/>
                                    <path fill="#2D4FCD" d="M3.826 5.228s.301-2.994 2.755-2.898c3.073.122 3.073 2.6 3.073 2.6s1.143-2.748-1.089-3.83c-1.86-.89-6.563.349-4.739 4.128z"/>
                                    <path fill="#2D4FCD" d="M9.406 3.953c0-1.483-1.222-2.688-2.728-2.688-1.505 0-2.728 1.205-2.728 2.688h5.456z"/>
                                    <path fill="#FFF" d="M7.139 21.129c.407-1.623.647-11.18.647-11.18s1.824 1.623 2.196 3.247c0 0-.664.811-1.187 1.483l.957.629-2.613 5.82z"/>
                                    <path fill="#FF94C0" d="M7.753 9.911c.016-.018.044-.02.062-.003l.026.024.053.048.02.019c.077.073.164.158.257.254.266.271.532.571.78.89.544.698.926 1.387 1.074 2.034.003.013 0 .027-.008.037l-.282.347-.181.224-.267.333-.22.277-.146.185-.062.08.917.603c.016.01.023.029.019.046l-.003.008-2.613 5.82c-.01.023-.036.033-.058.023-.02-.009-.03-.03-.025-.05l.002-.008 2.598-5.787-.925-.608c-.02-.012-.025-.037-.015-.056l.004-.007.139-.177.146-.185c.14-.179.29-.364.44-.551l.358-.443.091-.112-.007-.03c-.149-.601-.503-1.243-1.003-1.895l-.042-.055c-.247-.316-.51-.613-.775-.883l-.068-.069c-.055-.055-.108-.107-.158-.154l-.049-.047-.076-.07c-.018-.016-.02-.044-.003-.062z"/>
                                    <g>
                                        <path fill="#F4F3F7" d="M.097 2.897s2.507-2.4 5.474-.078c0 0 .257-2.54-2.524-2.802C1.594-.113.833.602.39 1.231c-.443.628-.293 1.666-.293 1.666z" transform="translate(3.897)"/>
                                        <path fill="#F71D66" d="M3.295 0.611L2.985 0.611 2.985 0.305 2.675 0.305 2.675 0.611 2.365 0.611 2.365 0.916 2.675 0.916 2.675 1.222 2.985 1.222 2.985 0.916 3.295 0.916z" transform="translate(3.897)"/>
                                    </g>
                                    <path fill="#F71D66" d="M3.685 18.022L1.816 25.58 7.732 26.828 9.548 19.174z"/>
                                    <path fill="#FFC2A4" d="M8.406 24l-.045.192-.026.114-.071.331h-.567l-.221-.148c.044-.2.159-.227.38-.332.222-.104.257-.375-.186-.279-.168.035-.992.122-.992.122l-1.603-.96-.62.969 1.17.628s.327.358.735.777c.062.07.141.122.23.157l.514.227s.194-.017.372-.14c.177-.122.478-.13.558-.48l.363-.261c.106-.158.133-.55.16-.725 0 .018.026-.314-.151-.192z"/>
                                    <path fill="#F4F3F7" d="M.177 20.771c.55 1.1 5.04 4.015 5.04 4.015l1.107-1.336-4.119-3.595s2.463-7.419.514-8.02c0 0-.655-.271-1.196 1.265C.983 14.636-.38 19.67.177 20.77z"/>
                                    <path fill="#FF94C0" d="M5.604 9.911c.016.018.015.046-.003.062l-.025.022-.052.048-.02.019c-.076.073-.162.157-.254.251-.264.27-.528.567-.775.883-.522.67-.892 1.332-1.045 1.95l-.007.03.237.292.212.263.355.443.133.168.237.302c.013.018.011.043-.004.058l-.007.005-.925.608 1.295 2.881c.01.02.002.042-.015.054l-.007.004c-.02.009-.043.002-.055-.015l-.004-.007-1.31-2.915c-.008-.017-.004-.037.01-.05l.005-.004.917-.603-.062-.08-.193-.245-.172-.217-.267-.333-.302-.374-.16-.197c-.01-.01-.013-.024-.01-.037.149-.647.53-1.336 1.074-2.034.248-.319.515-.619.78-.89l.07-.07.128-.127.08-.076.079-.072c.018-.016.046-.015.062.003z"/>
                                    <path fill="#FFC2A4" d="M10.266 23.756l-.39 1.248-.638.76s.354.27.886.357c.531.087.762.044.762.044s-.107-1.022.07-1.17c.178-.148-.017-1.082-.017-1.082l-.673-.157z"/>
                                    <path fill="#F4F3F7" d="M12.515 20.073c-.549 3.037-1.284 5.41-1.284 5.41l-1.541-.619 1.045-5.315s-1.408-7.392-.097-7.74c0 0 .655-.271 1.195 1.265s1.019 5.131.682 6.999z"/>
                                </g>
                            </g>
                        </g>
                    </g>
                </g>
            </g>
        </g>
    </g>
</svg>
