<svg xmlns="http://www.w3.org/2000/svg" xmlns:xlink="http://www.w3.org/1999/xlink" width="46" height="34" viewBox="0 0 46 34">
    <defs>
        <linearGradient id="q658w5p57b" x1="0%" x2="100%" y1="50%" y2="50%">
            <stop offset="0%" stop-color="#FFF"/>
            <stop offset="100%" stop-color="#285BFF"/>
        </linearGradient>
        <linearGradient id="trr89pn6he" x1="100%" x2="0%" y1="50%" y2="50%">
            <stop offset="0%" stop-color="#FFF"/>
            <stop offset="100%" stop-color="#285BFF"/>
        </linearGradient>
        <linearGradient id="kw6jjqmifh" x1="0%" x2="100%" y1="50%" y2="50%">
            <stop offset="0%" stop-color="#4D9CFF"/>
            <stop offset="100%" stop-color="#285BFF"/>
        </linearGradient>
        <linearGradient id="5fpzh30kak" x1="2.259%" x2="97.742%" y1="96.558%" y2="3.443%">
            <stop offset="0%" stop-color="#FFB405"/>
            <stop offset="100%" stop-color="#FF0069"/>
        </linearGradient>
        <linearGradient id="2k3m711ccn" x1="37.762%" x2="62.238%" y1="97.742%" y2="2.259%">
            <stop offset="0%" stop-color="#FFB405"/>
            <stop offset="100%" stop-color="#FF0069"/>
        </linearGradient>
        <linearGradient id="856nsm1plq" x1="0%" x2="100%" y1="50%" y2="50%">
            <stop offset="0%" stop-color="#4D9CFF"/>
            <stop offset="100%" stop-color="#285BFF"/>
        </linearGradient>
        <path id="4q4esqizsa" d="M8.225.013V.79h1.94c3.225 0 5.85 2.591 5.85 5.777 0 3.185-2.625 5.777-5.85 5.777H.043v.776h10.122c3.658 0 6.635-2.94 6.635-6.553S13.823.013 10.165.013h-1.94z"/>
        <path id="disg0cevpd" d="M6.635.009C2.977.009 0 2.949 0 6.562s2.977 6.552 6.635 6.552h4.83v-.776h-4.83c-3.225 0-5.85-2.591-5.85-5.776C.786 3.376 3.41.785 6.636.785h6.39V.009h-6.39z"/>
        <path id="a4zuccgm3g" d="M1.572.023C.746.023.074.686.074 1.502V9.54c0 .815.672 1.479 1.498 1.479H14.27c.825 0 1.497-.664 1.497-1.479v-8.04c0-.815-.672-1.478-1.497-1.478H1.572zM.86 9.541v-8.04c0-.387.32-.702.712-.702H14.27c.392 0 .712.315.712.703V9.54c0 .388-.32.703-.712.703H1.572c-.393 0-.712-.315-.712-.703z"/>
        <path id="6sde2rgoqj" d="M.062 4.353c0 2.373 1.955 4.303 4.358 4.303 2.402 0 4.357-1.93 4.357-4.303C8.777 1.981 6.822.051 4.42.051 2.017.05.062 1.98.062 4.353m.786 0C.848 2.41 2.45.826 4.42.826 6.389.826 7.99 2.41 7.99 4.353c0 1.945-1.602 3.527-3.571 3.527C2.45 7.88.848 6.298.848 4.353"/>
        <path id="wlzc86383m" d="M.037 2.49c0 1.348 1.11 2.444 2.475 2.444v-.776c-.931 0-1.69-.748-1.69-1.668 0-.92.759-1.669 1.69-1.669V.046C1.147.046.037 1.142.037 2.49"/>
        <path id="0uqcqrbcfp" d="M.46.014C.243.014.067.188.067.402V6.44c0 .215.176.388.393.388h4.147c1.902 0 3.45-1.528 3.45-3.406 0-1.879-1.548-3.407-3.45-3.407H.46zM.853.79h3.754C6.076.79 7.27 1.97 7.27 3.42c0 1.451-1.195 2.631-2.664 2.631H.853V.791z"/>
    </defs>
    <g fill="none" fill-rule="evenodd">
        <g>
            <g>
                <g>
                    <g>
                        <path d="M0 0H46V33.615H0z" opacity=".116" transform="translate(-81 -305) translate(59 277) translate(16 16) translate(6 12)"/>
                        <g>
                            <path fill="#F71D66" d="M17.75 14.004c-.136 0-.275.022-.41.066-.68.223-1.051.952-.826 1.625.096.284.83 1.213 2.398 2.546 1.578-1.342 2.317-2.274 2.412-2.558.226-.673-.145-1.402-.826-1.626-.46-.15-.963-.037-1.313.295-.15.143-.389.144-.541.002-.246-.228-.567-.35-.893-.35m1.16 5.134c-.09 0-.18-.03-.252-.09-.428-.356-2.577-2.175-2.89-3.11-.362-1.078.232-2.247 1.325-2.605.617-.202 1.286-.107 1.816.243.533-.36 1.209-.46 1.835-.255 1.093.358 1.687 1.526 1.325 2.606-.314.934-2.475 2.763-2.906 3.12-.073.061-.163.091-.252.091" transform="translate(-81 -305) translate(59 277) translate(16 16) translate(6 12) translate(5.52 .909)"/>
                            <g transform="translate(-81 -305) translate(59 277) translate(16 16) translate(6 12) translate(5.52 .909) translate(18.148 15.776)">
                                <mask id="9sjop8ucac" fill="#fff">
                                    <use xlink:href="#4q4esqizsa"/>
                                </mask>
                                <path fill="url(#q658w5p57b)" d="M8.225.013V.79h1.94c3.225 0 5.85 2.591 5.85 5.777 0 3.185-2.625 5.777-5.85 5.777H.043v.776h10.122c3.658 0 6.635-2.94 6.635-6.553S13.823.013 10.165.013h-1.94z" mask="url(#9sjop8ucac)"/>
                            </g>
                            <g transform="translate(-81 -305) translate(59 277) translate(16 16) translate(6 12) translate(5.52 .909) translate(0 3.984)">
                                <mask id="jp29b1nief" fill="#fff">
                                    <use xlink:href="#disg0cevpd"/>
                                </mask>
                                <path fill="url(#trr89pn6he)" d="M6.635.009C2.977.009 0 2.949 0 6.562s2.977 6.552 6.635 6.552h4.83v-.776h-4.83c-3.225 0-5.85-2.591-5.85-5.776C.786 3.376 3.41.785 6.636.785h6.39V.009h-6.39z" mask="url(#jp29b1nief)"/>
                            </g>
                            <g transform="translate(-81 -305) translate(59 277) translate(16 16) translate(6 12) translate(5.52 .909) translate(10.999 10.656)">
                                <mask id="zxsyf1oqmi" fill="#fff">
                                    <use xlink:href="#a4zuccgm3g"/>
                                </mask>
                                <path fill="url(#kw6jjqmifh)" d="M1.572.023C.746.023.074.686.074 1.502V9.54c0 .815.672 1.479 1.498 1.479H14.27c.825 0 1.497-.664 1.497-1.479v-8.04c0-.815-.672-1.478-1.497-1.478H1.572zM.86 9.541v-8.04c0-.387.32-.702.712-.702H14.27c.392 0 .712.315.712.703V9.54c0 .388-.32.703-.712.703H1.572c-.393 0-.712-.315-.712-.703z" mask="url(#zxsyf1oqmi)"/>
                            </g>
                            <g transform="translate(-81 -305) translate(59 277) translate(16 16) translate(6 12) translate(5.52 .909) translate(12.57 .027)">
                                <mask id="6bxetd91kl" fill="#fff">
                                    <use xlink:href="#6sde2rgoqj"/>
                                </mask>
                                <path fill="url(#5fpzh30kak)" d="M.062 4.353c0 2.373 1.955 4.303 4.358 4.303 2.402 0 4.357-1.93 4.357-4.303C8.777 1.981 6.822.051 4.42.051 2.017.05.062 1.98.062 4.353m.786 0C.848 2.41 2.45.826 4.42.826 6.389.826 7.99 2.41 7.99 4.353c0 1.945-1.602 3.527-3.571 3.527C2.45 7.88.848 6.298.848 4.353" mask="url(#6bxetd91kl)"/>
                            </g>
                            <g fill="#FFB0AC">
                                <path d="M3.163.823C1.885.823.845 1.85.845 3.113c0 1.261 1.04 2.288 2.318 2.288S5.48 4.374 5.48 3.112C5.48 1.85 4.44.823 3.163.823m0 5.354C1.45 6.177.059 4.802.059 3.112S1.451.047 3.163.047c1.71 0 3.103 1.375 3.103 3.065S4.874 6.177 3.163 6.177" transform="translate(-81 -305) translate(59 277) translate(16 16) translate(6 12) translate(5.52 .909) translate(13.827 1.268)"/>
                                <path d="M3.163 2.67c-.247 0-.448.198-.448.442s.2.442.448.442c.246 0 .447-.198.447-.442s-.2-.442-.447-.442m0 1.66c-.68 0-1.234-.546-1.234-1.218 0-.672.554-1.218 1.234-1.218.68 0 1.233.546 1.233 1.218 0 .672-.553 1.218-1.233 1.218" transform="translate(-81 -305) translate(59 277) translate(16 16) translate(6 12) translate(5.52 .909) translate(13.827 1.268)"/>
                            </g>
                            <g transform="translate(-81 -305) translate(59 277) translate(16 16) translate(6 12) translate(5.52 .909) translate(8.563 26.017)">
                                <mask id="26f0tjj0po" fill="#fff">
                                    <use xlink:href="#wlzc86383m"/>
                                </mask>
                                <path fill="url(#2k3m711ccn)" d="M.037 2.49c0 1.348 1.11 2.444 2.475 2.444v-.776c-.931 0-1.69-.748-1.69-1.668 0-.92.759-1.669 1.69-1.669V.046C1.147.046.037 1.142.037 2.49" mask="url(#26f0tjj0po)"/>
                            </g>
                            <g transform="translate(-81 -305) translate(59 277) translate(16 16) translate(6 12) translate(5.52 .909) translate(10.527 25.086)">
                                <mask id="jznih5eior" fill="#fff">
                                    <use xlink:href="#0uqcqrbcfp"/>
                                </mask>
                                <path fill="url(#856nsm1plq)" d="M.46.014C.243.014.067.188.067.402V6.44c0 .215.176.388.393.388h4.147c1.902 0 3.45-1.528 3.45-3.406 0-1.879-1.548-3.407-3.45-3.407H.46zM.853.79h3.754C6.076.79 7.27 1.97 7.27 3.42c0 1.451-1.195 2.631-2.664 2.631H.853V.791z" mask="url(#jznih5eior)"/>
                            </g>
                        </g>
                    </g>
                </g>
            </g>
        </g>
    </g>
</svg>
