<svg xmlns="http://www.w3.org/2000/svg" xmlns:xlink="http://www.w3.org/1999/xlink" width="46" height="34" viewBox="0 0 46 34">
    <defs>
        <linearGradient id="6bb24c51bc" x1="0%" x2="100%" y1="50.001%" y2="50.001%">
            <stop offset="0%" stop-color="#6989FF"/>
            <stop offset="100%" stop-color="#FFF"/>
        </linearGradient>
        <linearGradient id="svade0ahde" x1="0%" x2="100%" y1="49.999%" y2="49.999%">
            <stop offset="0%" stop-color="#4D9CFF"/>
            <stop offset="100%" stop-color="#285BFF"/>
        </linearGradient>
        <path id="yib99wymea" d="M0 18.775L39.996 18.775 39.996 0.056 0 0.056z"/>
        <path id="s72r9b819d" d="M3.717.022c-.572 0-1.138.114-1.684.339-.496.204-.968.497-1.404.871l-.52.447c-.066.058-.105.142-.105.23 0 .088.039.172.106.23l.52.446c.435.375.907.668 1.403.872.546.225 1.112.339 1.684.339H6.16c.813 0 1.6-.225 2.34-.67.195-.116.386-.25.57-.394l.74-.586c.072-.057.114-.145.114-.237 0-.093-.042-.18-.114-.237l-.74-.586C8.885.94 8.694.808 8.504.694L8.5.691C7.76.247 6.973.021 6.16.021H3.717zM2.264 2.897c-.436-.18-.853-.439-1.239-.77l-.253-.218.253-.218c.386-.332.803-.591 1.239-.77.472-.195.961-.293 1.453-.293H6.16c.7 0 1.383.196 2.023.58l.006.003c.171.103.341.22.504.35l.44.348-.44.348c-.163.13-.332.247-.505.35-.645.387-1.327.583-2.028.583H3.717c-.492 0-.98-.098-1.453-.293z"/>
    </defs>
    <g fill="none" fill-rule="evenodd">
        <g>
            <g>
                <g>
                    <g>
                        <g opacity=".116">
                            <path d="M0 0H46V34H0z" transform="translate(-357 -199) translate(335 171) translate(16 16) translate(6 12)"/>
                        </g>
                        <g>
                            <g transform="translate(-357 -199) translate(335 171) translate(16 16) translate(6 12) translate(3.22 7.81) translate(0 .004)">
                                <path fill="#4E73FF" d="M37.868 2.707c-.114 0-.207.092-.207.206v15.05c0 .114.093.207.207.207.114 0 .207-.093.207-.207V2.913c0-.114-.093-.206-.207-.206m0 16.068c-.448 0-.813-.364-.813-.812V2.913c0-.448.365-.812.813-.812.448 0 .813.364.813.812v15.05c0 .448-.365.812-.813.812"/>
                                <mask id="kjux66r8rb" fill="#fff">
                                    <use xlink:href="#yib99wymea"/>
                                </mask>
                                <path fill="#4E73FF" d="M23.121 13.201L37.358 13.201 37.358 12.595 23.121 12.595zM17.907 13.049L21.231 13.049 21.231 12.746 17.907 12.746zM2.128.662c-.114 0-.207.093-.207.206v17.095c0 .114.093.206.207.206.114 0 .206-.092.206-.206V.868c0-.113-.092-.206-.206-.206m0 18.113c-.448 0-.813-.364-.813-.812V.868c0-.447.365-.812.813-.812.448 0 .813.365.813.812v17.095c0 .448-.365.812-.813.812" mask="url(#kjux66r8rb)"/>
                                <path fill="#4E73FF" d="M2.638 13.201L12.297 13.201 12.297 12.595 2.638 12.595zM12.297 10.758H2.334V7.78c0-.832.679-1.51 1.513-1.51h8.45v.606h-8.45c-.5 0-.906.406-.906.904v2.373h9.356v.605z" mask="url(#kjux66r8rb)"/>
                            </g>
                            <path fill="url(#6bb24c51bc)" d="M2.733 4.941L12.047 4.941 12.047 4.336 2.733 4.336z" transform="translate(-357 -199) translate(335 171) translate(16 16) translate(6 12) translate(3.22 7.81)"/>
                            <path fill="#4E73FF" d="M39.693 18.78H.303c-.167 0-.303-.136-.303-.303 0-.168.136-.303.303-.303h39.39c.167 0 .303.135.303.303 0 .167-.136.302-.303.302" transform="translate(-357 -199) translate(335 171) translate(16 16) translate(6 12) translate(3.22 7.81)"/>
                            <g transform="translate(-357 -199) translate(335 171) translate(16 16) translate(6 12) translate(3.22 7.81) translate(2.425 2.73)">
                                <mask id="1gq9w02abf" fill="#fff">
                                    <use xlink:href="#s72r9b819d"/>
                                </mask>
                                <path fill="url(#svade0ahde)" d="M3.717.022c-.572 0-1.138.114-1.684.339-.496.204-.968.497-1.404.871l-.52.447c-.066.058-.105.142-.105.23 0 .088.039.172.106.23l.52.446c.435.375.907.668 1.403.872.546.225 1.112.339 1.684.339H6.16c.813 0 1.6-.225 2.34-.67.195-.116.386-.25.57-.394l.74-.586c.072-.057.114-.145.114-.237 0-.093-.042-.18-.114-.237l-.74-.586C8.885.94 8.694.808 8.504.694L8.5.691C7.76.247 6.973.021 6.16.021H3.717zM2.264 2.897c-.436-.18-.853-.439-1.239-.77l-.253-.218.253-.218c.386-.332.803-.591 1.239-.77.472-.195.961-.293 1.453-.293H6.16c.7 0 1.383.196 2.023.58l.006.003c.171.103.341.22.504.35l.44.348-.44.348c-.163.13-.332.247-.505.35-.645.387-1.327.583-2.028.583H3.717c-.492 0-.98-.098-1.453-.293z" mask="url(#1gq9w02abf)"/>
                            </g>
                            <path fill="#F71D66" d="M13.73 5.88c-.623 0-1.13.506-1.13 1.128v5.083c0 .706.352 1.373.918 1.742.577.376 1.307.398 1.904.058l2.334-1.332c1-.57 2.172-.63 3.219-.163.843.375 1.794.338 2.609-.102 1.132-.612 2.403-.936 3.675-.936h8.667c.623 0 1.13-.505 1.13-1.127V7.008c0-.622-.507-1.128-1.13-1.128H13.73zm.788 8.858c-.464 0-.926-.133-1.332-.398-.746-.486-1.192-1.327-1.192-2.25V7.009c0-.956.778-1.733 1.735-1.733h22.197c.957 0 1.735.777 1.735 1.733v3.223c0 .956-.778 1.733-1.735 1.733H27.26c-1.172 0-2.343.298-3.387.862-.982.53-2.128.576-3.144.123-.868-.387-1.842-.337-2.67.136l-2.335 1.332c-.376.214-.791.32-1.205.32z" transform="translate(-357 -199) translate(335 171) translate(16 16) translate(6 12) translate(3.22 7.81)"/>
                        </g>
                    </g>
                </g>
            </g>
        </g>
    </g>
</svg>
