<svg xmlns="http://www.w3.org/2000/svg" xmlns:xlink="http://www.w3.org/1999/xlink" width="46" height="34" viewBox="0 0 46 34">
    <defs>
        <path id="9t5zsus91a" d="M0 0.074L10.378 0.074 10.378 2.477 0 2.477z"/>
        <path id="w3bgnxqymc" d="M2.905 2.655c-1.87 1.8-2.9 4.218-2.9 6.812 0 2.36.875 4.62 2.464 6.363.58.637 1.448.932 2.32.79l-.128-.789c-.604.099-1.203-.103-1.6-.54C1.606 13.697.804 11.628.804 9.468c0-2.374.943-4.59 2.656-6.236C5.172 1.585 7.425.728 9.807.818c4.502.17 8.157 3.827 8.321 8.324.096 2.616-.977 5.105-2.944 6.83-.564.495-1.297.768-2.063.768-.923 0-1.796-.402-2.395-1.103l-1.35-1.58c-.261-.304-.605-.513-.995-.606-.785-.185-1.599.15-2.025.833l-.326.523.679.422.326-.523c.245-.392.711-.584 1.161-.477.224.053.421.173.571.348l1.35 1.579c.752.879 1.847 1.383 3.004 1.383.96 0 1.88-.343 2.591-.966 2.148-1.884 3.32-4.603 3.216-7.46C18.748 4.2 14.755.206 9.838.02 9.714.015 9.59.013 9.468.013c-2.463 0-4.782.93-6.563 2.642"/>
        <path id="ihpockc2zf" d="M2.336.034c-.254 0-.518.04-.78.126-.51.166-.942.476-1.218.873-.296.425-.384.92-.241 1.357.143.437.506.785.996.953.223.077.463.115.71.115.26 0 .527-.043.789-.128 1.09-.355 1.744-1.355 1.458-2.23C3.833.437 3.136.034 2.336.034m-.982 2.554c-.148-.051-.408-.176-.497-.446-.088-.27.048-.525.138-.653.175-.251.47-.46.809-.57.182-.06.365-.087.539-.087.455 0 .84.192.947.516.146.448-.287 1.008-.947 1.223-.178.058-.363.087-.54.087-.16 0-.312-.023-.45-.07"/>
        <path id="9icd1xkkni" d="M1.582.159c-.508.166-.94.476-1.217.873-.296.425-.384.92-.24 1.357.142.437.505.785.995.953.223.077.463.115.71.115.26 0 .528-.043.789-.128.508-.166.94-.476 1.217-.873.296-.424.384-.92.241-1.357-.143-.437-.506-.784-.996-.953C2.858.069 2.618.03 2.371.03c-.26 0-.527.043-.789.128m-.201 2.428c-.148-.05-.408-.176-.497-.446-.088-.27.048-.525.137-.653.176-.251.47-.459.81-.57.179-.058.364-.087.541-.087.159 0 .312.023.448.07.148.051.408.177.497.446.088.27-.048.525-.137.653-.175.251-.47.46-.81.57-.179.058-.364.087-.54.087-.16 0-.312-.023-.45-.07"/>
        <path id="y96jxyso7l" d="M1.659.078C.757.078.024.81.024 1.711v.962c0 .9.733 1.633 1.635 1.633h12.17c.221 0 .4-.179.4-.4V.479c0-.221-.179-.4-.4-.4H1.66zM.824 2.673v-.962c0-.46.374-.834.835-.834h11.77v2.63H1.66c-.46 0-.835-.374-.835-.834z"/>
        <path id="pztagcy77o" d="M.467.012c-.22 0-.4.179-.4.4 0 .22.18.4.4.4h8.435c.221 0 .4-.18.4-.4 0-.221-.179-.4-.4-.4H.467z"/>
        <path id="tm5xw6repr" d="M.434.008c-.221 0-.4.178-.4.399 0 .22.179.4.4.4h4.868c.221 0 .4-.18.4-.4 0-.22-.179-.4-.4-.4H.434z"/>
        <path id="9gn7vxdxiu" d="M0.021 0.076L14.226 0.076 14.226 4.304 0.021 4.304z"/>
        <linearGradient id="yle3v9apwd" x1="0%" x2="100%" y1="50%" y2="50%">
            <stop offset="0%" stop-color="#6989FF"/>
            <stop offset="100%" stop-color="#FFF"/>
        </linearGradient>
        <linearGradient id="p9ek41d0ng" x1=".002%" x2="99.998%" y1="49.998%" y2="49.998%">
            <stop offset="0%" stop-color="#6989FF"/>
            <stop offset="100%" stop-color="#FFF"/>
        </linearGradient>
        <linearGradient id="zo3vpqzm0j" x1="2.259%" x2="97.742%" y1="83.544%" y2="16.457%">
            <stop offset="0%" stop-color="#FFB405"/>
            <stop offset="100%" stop-color="#FF0069"/>
        </linearGradient>
        <linearGradient id="tonao11h0m" x1="0%" x2="100%" y1="49.999%" y2="49.999%">
            <stop offset="0%" stop-color="#4D9CFF"/>
            <stop offset="100%" stop-color="#285BFF"/>
        </linearGradient>
        <linearGradient id="kbfir2g31p" x1=".001%" x2="100.001%" y1="49.991%" y2="49.991%">
            <stop offset="0%" stop-color="#4D9CFF"/>
            <stop offset="100%" stop-color="#285BFF"/>
        </linearGradient>
        <linearGradient id="v1w7o1ua5s" x1="0%" x2="100.001%" y1="50.001%" y2="50.001%">
            <stop offset="0%" stop-color="#4D9CFF"/>
            <stop offset="100%" stop-color="#285BFF"/>
        </linearGradient>
    </defs>
    <g fill="none" fill-rule="evenodd">
        <g>
            <g>
                <g>
                    <g>
                        <g opacity=".116">
                            <path d="M0 0H46V34H0z" transform="translate(-633 -199) translate(611 171) translate(16 16) translate(6 12)"/>
                        </g>
                        <g>
                            <g>
                                <path fill="#4E73FF" d="M5.189 3.198c-.22 0-.4-.18-.4-.4V.458c0-.22.18-.4.4-.4.221 0 .4.18.4.4v2.34c0 .22-.179.4-.4.4" transform="translate(-633 -199) translate(611 171) translate(16 16) translate(6 12) translate(4.6 2.757) translate(0 8.457)"/>
                                <path fill="#4E73FF" d="M6.36 2.028H4.018c-.221 0-.4-.18-.4-.4 0-.22.179-.4.4-.4H6.36c.221 0 .4.18.4.4 0 .22-.179.4-.4.4M3.747 6.905h2.884l.854-1.837-2.296-1.79-2.296 1.79.854 1.837zm3.14.8H3.491c-.156 0-.297-.09-.363-.232L2.033 5.117c-.078-.169-.03-.369.117-.483l2.793-2.178c.144-.112.348-.112.492 0l2.793 2.178c.147.114.195.314.117.483L7.249 7.473c-.066.141-.207.231-.363.231z" transform="translate(-633 -199) translate(611 171) translate(16 16) translate(6 12) translate(4.6 2.757) translate(0 8.457)"/>
                                <path fill="#4E73FF" d="M2.92 7.704c-.011 0-.02.01-.02.022v.187c0 .012.009.021.02.021h4.537c.012 0 .022-.009.022-.02v-.188c0-.012-.01-.022-.022-.022H2.921zm4.537 1.03H2.921c-.453 0-.822-.368-.822-.82v-.188c0-.453.369-.82.822-.82h4.536c.453 0 .822.367.822.82v.187c0 .453-.369.82-.822.82z" transform="translate(-633 -199) translate(611 171) translate(16 16) translate(6 12) translate(4.6 2.757) translate(0 8.457)"/>
                                <path fill="#4E73FF" d="M7.809 16.85c-.133 0-.264-.067-.34-.188-.673-1.075-1.086-2.615-1.228-4.578-.114-1.583-.02-3.051.045-3.786.02-.22.215-.382.435-.362.22.02.382.214.362.434-.113 1.266-.372 5.575 1.064 7.868.118.187.06.433-.126.55-.066.042-.14.061-.212.061M2.57 16.85c-.073 0-.147-.02-.212-.062-.188-.117-.245-.363-.127-.55 1.436-2.293 1.177-6.602 1.064-7.868-.02-.22.143-.414.363-.434.22-.02.414.143.434.362.066.735.159 2.203.045 3.786-.142 1.963-.555 3.503-1.228 4.578-.076.12-.206.187-.34.187" transform="translate(-633 -199) translate(611 171) translate(16 16) translate(6 12) translate(4.6 2.757) translate(0 8.457)"/>
                                <path fill="#4E73FF" d="M1.393 17.915c-.017 0-.034 0-.051-.003-.22-.028-.374-.228-.346-.447.103-.799.79-1.4 1.596-1.4h5.194c.807 0 1.493.601 1.596 1.4.028.219-.127.419-.346.447-.219.028-.42-.126-.448-.345-.051-.401-.396-.704-.802-.704H2.592c-.406 0-.75.303-.802.704-.026.201-.198.348-.397.348" transform="translate(-633 -199) translate(611 171) translate(16 16) translate(6 12) translate(4.6 2.757) translate(0 8.457)"/>
                                <g transform="translate(-633 -199) translate(611 171) translate(16 16) translate(6 12) translate(4.6 2.757) translate(0 8.457) translate(0 17.1)">
                                    <mask id="5bsz0afwtb" fill="#fff">
                                        <use xlink:href="#9t5zsus91a"/>
                                    </mask>
                                    <path fill="#4E73FF" d="M.8 1.678h8.778v-.216c0-.325-.264-.588-.589-.588h-7.6c-.325 0-.589.263-.589.588v.216zm9.178.8H.4c-.221 0-.4-.18-.4-.4v-.616C0 .697.623.074 1.389.074h7.6c.766 0 1.39.623 1.39 1.388v.616c0 .22-.18.4-.4.4z" mask="url(#5bsz0afwtb)"/>
                                </g>
                            </g>
                            <g transform="translate(-633 -199) translate(611 171) translate(16 16) translate(6 12) translate(4.6 2.757) translate(8.48 .067)">
                                <mask id="8hw1d41ffe" fill="#fff">
                                    <use xlink:href="#w3bgnxqymc"/>
                                </mask>
                                <path fill="url(#yle3v9apwd)" d="M2.905 2.655c-1.87 1.8-2.9 4.218-2.9 6.812 0 2.36.875 4.62 2.464 6.363.58.637 1.448.932 2.32.79l-.128-.789c-.604.099-1.203-.103-1.6-.54C1.606 13.697.804 11.628.804 9.468c0-2.374.943-4.59 2.656-6.236C5.172 1.585 7.425.728 9.807.818c4.502.17 8.157 3.827 8.321 8.324.096 2.616-.977 5.105-2.944 6.83-.564.495-1.297.768-2.063.768-.923 0-1.796-.402-2.395-1.103l-1.35-1.58c-.261-.304-.605-.513-.995-.606-.785-.185-1.599.15-2.025.833l-.326.523.679.422.326-.523c.245-.392.711-.584 1.161-.477.224.053.421.173.571.348l1.35 1.579c.752.879 1.847 1.383 3.004 1.383.96 0 1.88-.343 2.591-.966 2.148-1.884 3.32-4.603 3.216-7.46C18.748 4.2 14.755.206 9.838.02 9.714.015 9.59.013 9.468.013c-2.463 0-4.782.93-6.563 2.642" mask="url(#8hw1d41ffe)"/>
                            </g>
                            <g transform="translate(-633 -199) translate(611 171) translate(16 16) translate(6 12) translate(4.6 2.757) translate(10.64 7.658)">
                                <mask id="rj2ko0sizh" fill="#fff">
                                    <use xlink:href="#ihpockc2zf"/>
                                </mask>
                                <path fill="url(#p9ek41d0ng)" d="M2.336.034c-.254 0-.518.04-.78.126-.51.166-.942.476-1.218.873-.296.425-.384.92-.241 1.357.143.437.506.785.996.953.223.077.463.115.71.115.26 0 .527-.043.789-.128 1.09-.355 1.744-1.355 1.458-2.23C3.833.437 3.136.034 2.336.034m-.982 2.554c-.148-.051-.408-.176-.497-.446-.088-.27.048-.525.138-.653.175-.251.47-.46.809-.57.182-.06.365-.087.539-.087.455 0 .84.192.947.516.146.448-.287 1.008-.947 1.223-.178.058-.363.087-.54.087-.16 0-.312-.023-.45-.07" mask="url(#rj2ko0sizh)"/>
                            </g>
                            <g>
                                <path fill="#FCAE3D" d="M2.356 1.007c-.177 0-.362.03-.541.088-.34.11-.634.318-.81.57-.088.128-.225.382-.136.652.088.27.349.396.496.447.29.1.65.093.99-.018.339-.11.634-.318.809-.57.089-.127.225-.382.137-.652s-.349-.395-.496-.446c-.137-.047-.29-.07-.449-.07m-.542 2.626c-.247 0-.487-.038-.71-.115-.49-.169-.853-.516-.996-.954-.143-.437-.055-.932.241-1.357.277-.397.71-.707 1.218-.872.508-.166 1.04-.17 1.498-.014.49.17.853.517.996.954.144.437.056.932-.24 1.357-.277.397-.71.707-1.218.873-.261.085-.529.128-.79.128" transform="translate(-633 -199) translate(611 171) translate(16 16) translate(6 12) translate(4.6 2.757) translate(12.96 2.944)"/>
                                <path fill="#F71D66" d="M8.089.826c-.178 0-.363.03-.542.088-.659.215-1.092.775-.946 1.222.146.448.826.644 1.486.43.34-.111.634-.319.81-.57.088-.128.224-.383.136-.653S8.684.948 8.537.897C8.4.85 8.247.827 8.089.827M7.555 3.45c-.8 0-1.498-.403-1.715-1.067C5.555 1.51 6.21.51 7.3.154 7.808-.01 8.34-.015 8.797.143c.49.168.854.516.997.953.143.438.055.932-.241 1.357-.276.397-.71.707-1.218.873-.262.086-.526.126-.78.126" transform="translate(-633 -199) translate(611 171) translate(16 16) translate(6 12) translate(4.6 2.757) translate(12.96 2.944)"/>
                            </g>
                            <g transform="translate(-633 -199) translate(611 171) translate(16 16) translate(6 12) translate(4.6 2.757) translate(21.52 7.1)">
                                <mask id="us7y72tgtk" fill="#fff">
                                    <use xlink:href="#9icd1xkkni"/>
                                </mask>
                                <path fill="url(#zo3vpqzm0j)" d="M1.582.159c-.508.166-.94.476-1.217.873-.296.425-.384.92-.24 1.357.142.437.505.785.995.953.223.077.463.115.71.115.26 0 .528-.043.789-.128.508-.166.94-.476 1.217-.873.296-.424.384-.92.241-1.357-.143-.437-.506-.784-.996-.953C2.858.069 2.618.03 2.371.03c-.26 0-.527.043-.789.128m-.201 2.428c-.148-.05-.408-.176-.497-.446-.088-.27.048-.525.137-.653.176-.251.47-.459.81-.57.179-.058.364-.087.541-.087.159 0 .312.023.448.07.148.051.408.177.497.446.088.27-.048.525-.137.653-.175.251-.47.46-.81.57-.179.058-.364.087-.54.087-.16 0-.312-.023-.45-.07" mask="url(#us7y72tgtk)"/>
                            </g>
                            <g>
                                <path fill="#4E73FF" d="M9.212.853c-.521 0-.945.424-.945.945 0 .52.424.944.945.944.522 0 .946-.424.946-.944 0-.521-.424-.945-.946-.945m0 2.688c-.962 0-1.745-.782-1.745-1.743 0-.962.783-1.744 1.745-1.744.963 0 1.746.782 1.746 1.744 0 .961-.783 1.743-1.746 1.743" transform="translate(-633 -199) translate(611 171) translate(16 16) translate(6 12) translate(4.6 2.757) translate(9.92 9.416)"/>
                                <path fill="#F71D66" d="M5.884 9.609c-.079 0-.159-.024-.229-.072-.18-.127-.225-.376-.098-.557.3-.427.772-.567 1.264-.375.338.132.559.04.621-.1.09-.202.326-.293.528-.204.202.09.293.326.204.527-.219.493-.853.83-1.645.521-.123-.048-.22-.05-.316.09-.078.11-.202.17-.329.17" transform="translate(-633 -199) translate(611 171) translate(16 16) translate(6 12) translate(4.6 2.757) translate(9.92 9.416)"/>
                                <path fill="#000" d="M6.015 8.43c-.014.124-.015.387.156.707.13.243.583.578 1.088.695.17.04.385.064.608.02-.171-.266-.341-.662-.42-1.235-.034-.252-.148-.426-.348-.531-.268-.141-.586-.11-.68-.076l-.404.42zm1.612 2.246c-.177 0-.36-.022-.548-.065-.69-.16-1.354-.612-1.614-1.098-.394-.738-.22-1.333-.2-1.398.02-.058.05-.11.092-.154l.51-.53c.272-.286.9-.305 1.347-.16.578.187.942.627 1.026 1.238.113.826.448 1.102.494 1.137.124.06.196.176.209.315.013.14-.062.272-.177.354-.331.24-.718.36-1.139.36z" transform="translate(-633 -199) translate(611 171) translate(16 16) translate(6 12) translate(4.6 2.757) translate(9.92 9.416)"/>
                                <path fill="#4E73FF" d="M.993 3.106c-.018 0-.066.016-.113.066-.052.054-.064.109-.06.12.178.446.618 1.21 1.708 2.32 1.69 1.72 2.64 2.112 2.972 2.2l.224-.233c-.103-.326-.536-1.258-2.331-2.87C2.236 3.669 1.452 3.264.998 3.107H.993m4.637 5.53c-.298 0-1.427-.179-3.674-2.465C1.006 5.204.374 4.335.077 3.587c-.127-.32-.04-.69.225-.968.266-.278.633-.38.959-.267.76.264 1.658.857 2.667 1.763C6.472 6.399 6.563 7.52 6.555 7.722c-.004.097-.043.19-.11.26l-.51.532c-.067.07-.159.114-.256.122l-.049.002" transform="translate(-633 -199) translate(611 171) translate(16 16) translate(6 12) translate(4.6 2.757) translate(9.92 9.416)"/>
                            </g>
                            <g transform="translate(-633 -199) translate(611 171) translate(16 16) translate(6 12) translate(4.6 2.757) translate(21.12 23.64)">
                                <mask id="tyuz6xzl1n" fill="#fff">
                                    <use xlink:href="#y96jxyso7l"/>
                                </mask>
                                <path fill="url(#tonao11h0m)" d="M1.659.078C.757.078.024.81.024 1.711v.962c0 .9.733 1.633 1.635 1.633h12.17c.221 0 .4-.179.4-.4V.479c0-.221-.179-.4-.4-.4H1.66zM.824 2.673v-.962c0-.46.374-.834.835-.834h11.77v2.63H1.66c-.46 0-.835-.374-.835-.834z" mask="url(#tyuz6xzl1n)"/>
                            </g>
                            <g transform="translate(-633 -199) translate(611 171) translate(16 16) translate(6 12) translate(4.6 2.757) translate(23.92 24.838)">
                                <mask id="0c323jfldq" fill="#fff">
                                    <use xlink:href="#pztagcy77o"/>
                                </mask>
                                <path fill="url(#kbfir2g31p)" d="M.467.012c-.22 0-.4.179-.4.4 0 .22.18.4.4.4h8.435c.221 0 .4-.18.4-.4 0-.221-.179-.4-.4-.4H.467z" mask="url(#0c323jfldq)"/>
                            </g>
                            <g transform="translate(-633 -199) translate(611 171) translate(16 16) translate(6 12) translate(4.6 2.757) translate(27.52 25.877)">
                                <mask id="cbqk3e7gct" fill="#fff">
                                    <use xlink:href="#tm5xw6repr"/>
                                </mask>
                                <path fill="url(#v1w7o1ua5s)" d="M.434.008c-.221 0-.4.178-.4.399 0 .22.179.4.4.4h4.868c.221 0 .4-.18.4-.4 0-.22-.179-.4-.4-.4H.434z" mask="url(#cbqk3e7gct)"/>
                            </g>
                            <g>
                                <g transform="translate(-633 -199) translate(611 171) translate(16 16) translate(6 12) translate(4.6 2.757) translate(22.56 19.325)">
                                    <mask id="rck1isqiev" fill="#fff">
                                        <use xlink:href="#9gn7vxdxiu"/>
                                    </mask>
                                    <path fill="#F71D66" d="M1.656.875c-.46 0-.835.374-.835.834v.962c0 .46.374.834.835.834h11.77V.875H1.656zm12.17 3.429H1.656C.754 4.304.02 3.57.02 2.67v-.962C.02.809.754.076 1.656.076h12.17c.221 0 .4.179.4.4v3.428c0 .22-.179.4-.4.4z" mask="url(#rck1isqiev)"/>
                                </g>
                                <path fill="#F71D66" d="M11.699 2.008H3.264c-.22 0-.4-.18-.4-.4 0-.22.18-.4.4-.4H11.7c.22 0 .4.18.4.4 0 .22-.18.4-.4.4M11.699 3.042H6.83c-.22 0-.4-.18-.4-.4 0-.22.18-.4.4-.4H11.7c.22 0 .4.18.4.4 0 .22-.18.4-.4.4" transform="translate(-633 -199) translate(611 171) translate(16 16) translate(6 12) translate(4.6 2.757) translate(22.56 19.325)"/>
                            </g>
                        </g>
                    </g>
                </g>
            </g>
        </g>
    </g>
</svg>
